<?xml version="1.0" encoding="UTF-8" standalone="no"?>
<svg
   version="1.1"
   viewBox="0 0 696.65753 397.94684"
   fill="none"
   stroke="none"
   stroke-linecap="square"
   stroke-miterlimit="10"
   id="svg85"
   width="696.65753"
   height="397.94684"
   xmlns="http://www.w3.org/2000/svg"
   xmlns:svg="http://www.w3.org/2000/svg">
  <defs
     id="defs89">
    <marker
       style="overflow:visible"
       id="StopM"
       refX="0"
       refY="0"
       orient="auto">
      <path
         transform="scale(0.4)"
         style="fill:none;fill-opacity:0.75;fill-rule:evenodd;stroke:context-stroke;stroke-width:1pt"
         d="M 0,5.65 V -5.65"
         id="path4785" />
    </marker>
    <marker
       orient="auto"
       refY="0"
       refX="0"
       id="DistanceStart"
       style="overflow:visible">
      <g
         id="g2300">
        <path
           id="path2306"
           d="M 0,0 H 2"
           style="fill:none;stroke:context-fill;stroke-width:1.15;stroke-linecap:square" />
        <path
           id="path2302"
           d="M 0,0 13,4 9,0 13,-4 Z"
           style="fill:context-stroke;fill-rule:evenodd;stroke:none" />
        <path
           id="path2304"
           d="M 0,-4 V 40"
           style="fill:none;stroke:context-stroke;stroke-width:1;stroke-linecap:square" />
      </g>
    </marker>
    <marker
       style="overflow:visible"
       id="marker6035"
       refX="0"
       refY="0"
       orient="auto">
      <path
         transform="matrix(-0.4,0,0,-0.4,-4,0)"
         style="fill:context-stroke;fill-rule:evenodd;stroke:context-stroke;stroke-width:1pt"
         d="M 0,0 5,-5 -12.5,0 5,5 Z"
         id="path6033" />
    </marker>
    <marker
       style="overflow:visible"
       id="Arrow1Mstart"
       refX="0"
       refY="0"
       orient="auto">
      <path
         transform="matrix(0.4,0,0,0.4,4,0)"
         style="fill:context-stroke;fill-rule:evenodd;stroke:context-stroke;stroke-width:1pt"
         d="M 0,0 5,-5 -12.5,0 5,5 Z"
         id="path4619" />
    </marker>
    <marker
       style="overflow:visible"
       id="marker6017"
       refX="0"
       refY="0"
       orient="auto">
      <path
         transform="matrix(-0.4,0,0,-0.4,-4,0)"
         style="fill:context-stroke;fill-rule:evenodd;stroke:context-stroke;stroke-width:1pt"
         d="M 0,0 5,-5 -12.5,0 5,5 Z"
         id="path6015" />
    </marker>
    <marker
       style="overflow:visible"
       id="Arrow2Mstart"
       refX="0"
       refY="0"
       orient="auto">
      <path
         transform="scale(0.6)"
         d="M 8.7185878,4.0337352 -2.2072895,0.01601326 8.7185884,-4.0017078 c -1.7454984,2.3720609 -1.7354408,5.6174519 -6e-7,8.035443 z"
         style="fill:context-stroke;fill-rule:evenodd;stroke:context-stroke;stroke-width:0.625;stroke-linejoin:round"
         id="path4637" />
    </marker>
    <marker
       style="overflow:visible"
       id="Arrow1Lstart"
       refX="0"
       refY="0"
       orient="auto">
      <path
         transform="matrix(0.8,0,0,0.8,10,0)"
         style="fill:context-stroke;fill-rule:evenodd;stroke:context-stroke;stroke-width:1pt"
         d="M 0,0 5,-5 -12.5,0 5,5 Z"
         id="path4613" />
    </marker>
    <marker
       style="overflow:visible"
       id="marker4883"
       refX="0"
       refY="0"
       orient="auto">
      <path
         transform="matrix(-0.4,0,0,-0.4,-4,0)"
         style="fill:context-stroke;fill-rule:evenodd;stroke:context-stroke;stroke-width:1pt"
         d="M 0,0 5,-5 -12.5,0 5,5 Z"
         id="path4881" />
    </marker>
    <marker
       style="overflow:visible"
       id="Arrow1Mend"
       refX="0"
       refY="0"
       orient="auto">
      <path
         transform="matrix(-0.4,0,0,-0.4,-4,0)"
         style="fill:context-stroke;fill-rule:evenodd;stroke:context-stroke;stroke-width:1pt"
         d="M 0,0 5,-5 -12.5,0 5,5 Z"
         id="path4622" />
    </marker>
    <marker
       style="overflow:visible"
       id="marker4883-6"
       refX="0"
       refY="0"
       orient="auto">
      <path
         transform="matrix(-0.4,0,0,-0.4,-4,0)"
         style="fill:context-stroke;fill-rule:evenodd;stroke:context-stroke;stroke-width:1pt"
         d="M 0,0 5,-5 -12.5,0 5,5 Z"
         id="path4881-7" />
    </marker>
    <marker
       style="overflow:visible"
       id="marker5566"
       refX="0"
       refY="0"
       orient="auto">
      <path
         transform="matrix(-0.4,0,0,-0.4,-4,0)"
         style="fill:context-stroke;fill-rule:evenodd;stroke:context-stroke;stroke-width:1pt"
         d="M 0,0 5,-5 -12.5,0 5,5 Z"
         id="path5564" />
    </marker>
    <marker
       style="overflow:visible"
       id="marker5570"
       refX="0"
       refY="0"
       orient="auto">
      <path
         transform="matrix(-0.4,0,0,-0.4,-4,0)"
         style="fill:context-stroke;fill-rule:evenodd;stroke:context-stroke;stroke-width:1pt"
         d="M 0,0 5,-5 -12.5,0 5,5 Z"
         id="path5568" />
    </marker>
    <marker
       style="overflow:visible"
       id="StopM-2"
       refX="0"
       refY="0"
       orient="auto">
      <path
         transform="scale(0.4)"
         style="fill:none;fill-opacity:0.75;fill-rule:evenodd;stroke:context-stroke;stroke-width:1pt"
         d="M 0,5.65 V -5.65"
         id="path4785-9" />
    </marker>
    <marker
       style="overflow:visible"
       id="marker7173"
       refX="0"
       refY="0"
       orient="auto">
      <path
         transform="scale(0.4)"
         style="fill:none;fill-opacity:0.75;fill-rule:evenodd;stroke:context-stroke;stroke-width:1pt"
         d="M 0,5.65 V -5.65"
         id="path7171" />
    </marker>
  </defs>
  <clipPath
     id="g12ac9517219_0_156.0">
    <path
       d="M 0,0 H 960 V 540 H 0 Z"
       clip-rule="nonzero"
       id="path2" />
  </clipPath>
  <rect
     style="color:#000000;overflow:visible;fill:#ffffff;fill-rule:evenodd;stroke:none;stroke-width:1px;-inkscape-stroke:none;stop-color:#000000"
     id="rect8719"
     width="696.65753"
     height="397.94684"
     x="0"
     y="0" />
  <path
     fill="#d9ead3"
     d="M 131.51895,39.167974 495.48743,10.254591 393.31684,285.57744 247.5872,300.56956 Z"
     fill-rule="evenodd"
     id="path7" />
  <path
     fill="#d9ead3"
     d="m 190.20312,169.73282 237.07875,23.35622 -7.30019,21.22692 -176.71695,76.35741 z"
     fill-rule="evenodd"
     id="path7-3"
     style="fill:#dcb4be" />
  <path
     stroke="#000000"
     stroke-width="1"
     stroke-linejoin="round"
     stroke-linecap="butt"
     stroke-dasharray="4, 3"
     d="M 131.51895,39.167974 495.48743,10.254591 393.31684,285.57744 247.5872,300.56956 Z"
     fill-rule="evenodd"
     id="path9" />
  <path
     fill="#000000"
     fill-opacity="0"
     d="m 71.991394,334.25459 19.55905,-19.55905 5.10236,-38.26773 27.212596,-29.76377 41.66929,5.10236 16.15747,22.11023 29.7638,7.65357 16.15747,-11.05515 17.85827,-21.25983 18.70865,-0.8504 14.4567,-29.76376 19.55905,7.65353 11.05512,-6.80316 36.56692,-23.81102 28.91339,-5.95274 11.90552,18.70865 17.85825,4.25198 h 39.11816 l 10.20471,19.55905 28.06299,3.40158 22.11023,15.30707 50.17322,10.20474 2.55121,15.30707 -3.40161,32.31497 9.35437,24.66141 21.25982,-9.35431 21.25983,7.65353 5.95276,17.85828 -2.55121,23.811"
     fill-rule="evenodd"
     id="path11" />
  <path
     stroke="#000000"
     stroke-width="3"
     stroke-linejoin="round"
     stroke-linecap="butt"
     d="m 71.991394,334.25459 19.55905,-19.55905 5.10236,-38.26773 27.212596,-29.76377 41.66929,5.10236 16.15747,22.11023 29.7638,7.65357 16.15747,-11.05515 17.85827,-21.25983 18.70865,-0.8504 14.4567,-29.76376 19.55905,7.65353 11.05512,-6.80316 36.56692,-23.81102 28.91339,-5.95274 11.90552,18.70865 17.85825,4.25198 h 39.11816 l 10.20471,19.55905 28.06299,3.40158 22.11023,15.30707 50.17322,10.20474 2.55121,15.30707 -3.40161,32.31497 9.35437,24.66141 21.25982,-9.35431 21.25983,7.65353 5.95276,17.85828 -2.55121,23.811"
     fill-rule="evenodd"
     id="path13" />
  <path
     fill="#000000"
     fill-opacity="0"
     d="M -89.173966,-4.9902344e-7 H 805.37718 V 60.125984 H -89.173966 Z"
     fill-rule="evenodd"
     id="path15" />
  <path
     fill="#000000"
     fill-opacity="0"
     d="M 186.16067,161.19947 448.0819,135.68766"
     fill-rule="evenodd"
     id="path19" />
  <path
     fill="#000000"
     fill-opacity="0"
     d="m 237.3457,155.67191 43.84253,140.31494"
     fill-rule="evenodd"
     id="path23" />
  <path
     stroke="#595959"
     stroke-width="1"
     stroke-linejoin="round"
     stroke-linecap="butt"
     d="m 251.8582,154.81424 31.67583,139.86321"
     fill-rule="evenodd"
     id="path25"
     style="marker-end:url(#marker4883)" />
  <path
     fill="#000000"
     fill-opacity="0"
     d="m 314.3536,151.41995 7.65353,141.16536"
     fill-rule="evenodd"
     id="path29" />
  <path
     stroke="#595959"
     stroke-width="1"
     stroke-linejoin="round"
     stroke-linecap="butt"
     d="m 317.12129,148.44356 3.28331,142.57061"
     fill-rule="evenodd"
     id="path31"
     style="marker-end:url(#marker4883)" />
  <path
     fill="#000000"
     fill-opacity="0"
     d="M 387.25122,142.91601 359.44021,287.48292"
     fill-rule="evenodd"
     id="path35" />
  <path
     stroke="#595959"
     stroke-width="1"
     stroke-linejoin="round"
     stroke-linecap="butt"
     d="M 383.37447,140.14526 357.22285,287.41967"
     fill-rule="evenodd"
     id="path37"
     style="marker-end:url(#marker4883)" />
  <g
     id="path25-5">
    <path
       style="color:#000000;fill:#b4555a;fill-rule:evenodd;stroke-linejoin:round;stroke-miterlimit:10;-inkscape-stroke:none"
       d="m 249.61133,175.45508 -0.92774,0.37109 37.59571,94.19141 0.92968,-0.3711 z"
       id="path10015" />
    <g
       id="g10005">
      <g
         id="path10007">
        <path
           style="color:#000000;fill:#b4555a;fill-rule:evenodd;stroke-width:0.4pt;stroke-miterlimit:10;-inkscape-stroke:none"
           d="m 285.26161,266.11649 -2.59892,-1.11608 4.45247,5.75982 -0.73748,-7.24266 z"
           id="path10011" />
        <path
           style="color:#000000;fill:#b4555a;fill-rule:evenodd;stroke-miterlimit:10;-inkscape-stroke:none"
           d="m 286.53906,262.4668 -1.41797,3.29882 -3.29882,-1.41601 5.65234,7.3125 z m -0.32226,2.09961 0.53906,5.29296 -3.25391,-4.20703 1.90039,0.81446 0.10352,-0.24414 z"
           id="path10013" />
      </g>
    </g>
  </g>
  <g
     id="path31-3">
    <path
       style="color:#000000;fill:#b4555a;fill-rule:evenodd;stroke-linejoin:round;stroke-miterlimit:10;-inkscape-stroke:none"
       d="m 309.21875,181.25781 -0.95313,0.30664 22.29297,69.25196 0.95118,-0.30664 z"
       id="path10001" />
    <g
       id="g9991">
      <g
         id="path9993">
        <path
           style="color:#000000;fill:#b4555a;fill-rule:evenodd;stroke-width:0.4pt;stroke-miterlimit:10;-inkscape-stroke:none"
           d="m 329.80803,246.85547 -2.51661,-1.291 4.04862,6.05051 -0.24101,-7.27612 z"
           id="path9997" />
        <path
           style="color:#000000;fill:#b4555a;fill-rule:evenodd;stroke-miterlimit:10;-inkscape-stroke:none"
           d="m 331.33203,243.30078 -1.64062,3.19727 -3.19336,-1.64063 5.13867,7.68164 z m -0.46484,2.07617 0.17578,5.31446 -2.95703,-4.41993 1.83789,0.94336 0.12109,-0.23828 z"
           id="path9999" />
      </g>
    </g>
  </g>
  <g
     id="path37-5">
    <path
       style="color:#000000;fill:#b4555a;fill-rule:evenodd;stroke-linejoin:round;stroke-miterlimit:10;-inkscape-stroke:none"
       d="m 368.50586,187.16602 -0.98633,0.16796 7.45508,44.17383 0.98633,-0.16601 z"
       id="path9987" />
    <g
       id="g9977">
      <g
         id="path9979">
        <path
           style="color:#000000;fill:#b4555a;fill-rule:evenodd;stroke-width:0.4pt;stroke-miterlimit:10;-inkscape-stroke:none"
           d="m 374.80249,227.48088 -2.30496,-1.63925 3.13711,6.56951 0.8071,-7.23523 z"
           id="path9983" />
        <path
           style="color:#000000;fill:#b4555a;fill-rule:evenodd;stroke-miterlimit:10;-inkscape-stroke:none"
           d="m 376.82031,224.18359 -2.08008,2.92578 -2.92773,-2.08203 3.98437,8.3418 z m -0.75781,1.98438 -0.58984,5.28515 -2.29102,-4.79882 1.68359,1.19922 0.1543,-0.21875 z"
           id="path9985" />
      </g>
    </g>
  </g>
  <path
     fill="#000000"
     fill-opacity="0"
     d="M 668.11737,295.98686 447.01501,136.11285"
     fill-rule="evenodd"
     id="path41" />
  <path
     fill="#000000"
     fill-opacity="0"
     d="M 187.44546,161.5643 39.665924,306.19423"
     fill-rule="evenodd"
     id="path45" />
  <path
     stroke="#1155cc"
     stroke-width="3"
     stroke-linejoin="round"
     stroke-linecap="butt"
     d="M 39.665924,306.19423 186.16067,161.19947 448.9508,135.65856 668.11737,295.98686"
     fill-rule="evenodd"
     id="path47" />
  <path
     fill="#000000"
     fill-opacity="0"
     d="M 34.574064,341.05775 H 203.80239 V 383.0735 H 34.574064 Z"
     fill-rule="evenodd"
     id="path49" />
  <path
     fill="#000000"
     d="m 44.933444,367.97773 v -13.35938 h 2.70312 v 5.26563 h 5.28125 v -5.26563 h 2.70313 v 13.35938 h -2.70313 v -5.84375 h -5.28125 v 5.84375 z m 13.45732,-10.98438 v -2.375 h 2.5625 v 2.375 z m 0,10.98438 v -9.67188 h 2.5625 v 9.67188 z m 4.94893,0.64062 2.92187,0.35938 q 0.0625,0.5 0.32813,0.6875 0.375,0.28125 1.15625,0.28125 1,0 1.5,-0.29688 0.32812,-0.20312 0.51562,-0.65625 0.10938,-0.3125 0.10938,-1.17187 v -1.40625 q -1.14063,1.5625 -2.89063,1.5625 -1.95312,0 -3.09375,-1.65625 -0.89062,-1.29688 -0.89062,-3.23438 0,-2.4375 1.17187,-3.71875 1.17188,-1.28125 2.90625,-1.28125 1.79688,0 2.96875,1.57813 v -1.35938 h 2.39063 v 8.67188 q 0,1.71875 -0.28125,2.5625 -0.28125,0.84375 -0.79688,1.32812 -0.5,0.48438 -1.35937,0.75 -0.84375,0.28125 -2.15625,0.28125 -2.45313,0 -3.48438,-0.84375 -1.03125,-0.84375 -1.03125,-2.125 0,-0.14062 0.0156,-0.3125 z m 2.28125,-5.67187 q 0,1.53125 0.59375,2.25 0.59375,0.71875 1.46875,0.71875 0.9375,0 1.57812,-0.73438 0.65625,-0.73437 0.65625,-2.17187 0,-1.51563 -0.625,-2.23438 -0.60937,-0.73437 -1.5625,-0.73437 -0.92187,0 -1.51562,0.71875 -0.59375,0.71875 -0.59375,2.1875 z m 11.89598,-8.32813 v 4.92188 q 1.23438,-1.45313 2.95313,-1.45313 0.89062,0 1.59375,0.32813 0.71875,0.32812 1.07812,0.84375 0.35938,0.5 0.48438,1.125 0.14062,0.60937 0.14062,1.92187 v 5.67188 h -2.5625 v -5.10938 q 0,-1.51562 -0.15625,-1.92187 -0.14062,-0.42188 -0.51562,-0.65625 -0.35938,-0.25 -0.90625,-0.25 -0.64063,0 -1.14063,0.3125 -0.5,0.3125 -0.73437,0.9375 -0.23438,0.625 -0.23438,1.84375 v 4.84375 h -2.5625 v -13.35938 z m 8.55223,9.79688 v -2.5625 h 5.03125 v 2.5625 z m 8.96268,3.5625 h -2.5625 v -9.67188 h 2.375 v 1.375 q 0.60937,-0.98437 1.09375,-1.28125 0.48437,-0.3125 1.10937,-0.3125 0.875,0 1.6875,0.48438 l -0.79687,2.23437 q -0.64063,-0.42187 -1.20313,-0.42187 -0.53125,0 -0.90625,0.29687 -0.375,0.29688 -0.59375,1.07813 -0.20312,0.76562 -0.20312,3.23437 z m 10.400886,-3.07813 2.54688,0.42188 q -0.48438,1.40625 -1.54688,2.14062 -1.0625,0.73438 -2.65625,0.73438 -2.51562,0 -3.73437,-1.65625 -0.953126,-1.3125 -0.953126,-3.32813 0,-2.40625 1.249996,-3.76562 1.26563,-1.35938 3.1875,-1.35938 2.15625,0 3.40625,1.42188 1.25,1.42187 1.1875,4.375 h -6.40625 q 0.0312,1.14062 0.60938,1.78125 0.59375,0.625 1.48437,0.625 0.59375,0 1,-0.32813 0.42188,-0.32812 0.625,-1.0625 z m 0.15625,-2.59375 q -0.0312,-1.10937 -0.57812,-1.6875 -0.54688,-0.57812 -1.32813,-0.57812 -0.84375,0 -1.39062,0.60937 -0.54688,0.60938 -0.53125,1.65625 z m 3.71947,2.90625 2.5625,-0.39062 q 0.17188,0.75 0.67188,1.14062 0.5,0.39063 1.40625,0.39063 0.98437,0 1.48437,-0.375 0.34375,-0.25 0.34375,-0.67188 0,-0.29687 -0.1875,-0.48437 -0.1875,-0.1875 -0.85937,-0.34375 -3.09375,-0.6875 -3.92188,-1.25 -1.14062,-0.78125 -1.14062,-2.17188 0,-1.26562 0.98437,-2.10937 1,-0.85938 3.07813,-0.85938 1.98437,0 2.95312,0.65625 0.96875,0.64063 1.32813,1.90625 l -2.40625,0.4375 q -0.15625,-0.5625 -0.59375,-0.85937 -0.42188,-0.29688 -1.23438,-0.29688 -1,0 -1.4375,0.28125 -0.29687,0.20313 -0.29687,0.51563 0,0.26562 0.25,0.46875 0.34375,0.25 2.39062,0.71875 2.04688,0.45312 2.85938,1.14062 0.79687,0.67188 0.79687,1.89063 0,1.34375 -1.10937,2.29687 -1.10938,0.95313 -3.28125,0.95313 -1.98438,0 -3.14063,-0.79688 -1.14062,-0.8125 -1.5,-2.1875 z m 15.7934,-1.57812 2.625,-0.25 q 0.23437,1.3125 0.95312,1.9375 0.73438,0.60937 1.96875,0.60937 1.29688,0 1.95313,-0.54687 0.67187,-0.54688 0.67187,-1.28125 0,-0.48438 -0.28125,-0.8125 -0.28125,-0.32813 -0.96875,-0.57813 -0.48437,-0.15625 -2.17187,-0.57812 -2.15625,-0.54688 -3.03125,-1.32813 -1.23438,-1.09375 -1.23438,-2.6875 0,-1.01562 0.57813,-1.90625 0.57812,-0.89062 1.65625,-1.34375 1.09375,-0.46875 2.64062,-0.46875 2.51563,0 3.78125,1.10938 1.28125,1.09375 1.34375,2.9375 l -2.70312,0.10937 q -0.17188,-1.03125 -0.75,-1.46875 -0.5625,-0.45312 -1.70313,-0.45312 -1.17187,0 -1.84375,0.46875 -0.42187,0.3125 -0.42187,0.84375 0,0.46875 0.40625,0.79687 0.5,0.4375 2.46875,0.90625 1.96875,0.45313 2.90625,0.95313 0.95312,0.5 1.48437,1.35937 0.53125,0.85938 0.53125,2.125 0,1.15625 -0.64062,2.15625 -0.64063,1 -1.8125,1.48438 -1.15625,0.48437 -2.89063,0.48437 -2.53125,0 -3.89062,-1.17187 -1.35938,-1.17188 -1.625,-3.40625 z m 19.47482,4.34375 v -1.45313 q -0.53125,0.78125 -1.39063,1.23438 -0.85937,0.4375 -1.8125,0.4375 -0.96875,0 -1.75,-0.42188 -0.76562,-0.4375 -1.125,-1.20312 -0.34375,-0.78125 -0.34375,-2.14063 v -6.125 h 2.5625 v 4.4375 q 0,2.04688 0.14063,2.51563 0.14062,0.45312 0.51562,0.71875 0.375,0.26562 0.95313,0.26562 0.65625,0 1.17187,-0.35937 0.51563,-0.35938 0.70313,-0.89063 0.20312,-0.53125 0.20312,-2.60937 v -4.07813 h 2.54688 v 9.67188 z m 7.48971,0 h -2.5625 v -9.67188 h 2.375 v 1.375 q 0.60938,-0.98437 1.09375,-1.28125 0.48438,-0.3125 1.10938,-0.3125 0.875,0 1.6875,0.48438 l -0.79688,2.23437 q -0.64062,-0.42187 -1.20312,-0.42187 -0.53125,0 -0.90625,0.29687 -0.375,0.29688 -0.59375,1.07813 -0.20313,0.76562 -0.20313,3.23437 z m 3.68216,-9.67188 h 1.42188 v -0.73437 q 0,-1.21875 0.25,-1.8125 0.26562,-0.60938 0.95312,-0.98438 0.70313,-0.375 1.78125,-0.375 1.09375,0 2.14063,0.32813 l -0.35938,1.78125 q -0.60937,-0.14063 -1.17187,-0.14063 -0.54688,0 -0.79688,0.26563 -0.23437,0.25 -0.23437,0.98437 v 0.6875 h 1.90625 v 2.01563 h -1.90625 v 7.65625 h -2.5625 v -7.65625 h -1.42188 z m 9.24393,2.95313 -2.32812,-0.42188 q 0.40625,-1.40625 1.35937,-2.07812 0.95313,-0.67188 2.84375,-0.67188 1.70313,0 2.54688,0.40625 0.84375,0.40625 1.17187,1.03125 0.34375,0.625 0.34375,2.28125 l -0.0156,3 q 0,1.26563 0.10937,1.875 0.125,0.60938 0.46875,1.29688 h -2.53125 q -0.10937,-0.25 -0.25,-0.75 -0.0625,-0.23438 -0.0937,-0.3125 -0.65625,0.64062 -1.40625,0.96875 -0.73437,0.3125 -1.59375,0.3125 -1.48437,0 -2.34375,-0.8125 -0.85937,-0.8125 -0.85937,-2.04688 0,-0.82812 0.39062,-1.46875 0.39063,-0.64062 1.09375,-0.96875 0.70313,-0.34375 2.03125,-0.60937 1.79688,-0.32813 2.48438,-0.625 v -0.25 q 0,-0.75 -0.35938,-1.0625 -0.35937,-0.3125 -1.375,-0.3125 -0.6875,0 -1.07812,0.28125 -0.375,0.26562 -0.60938,0.9375 z m 3.42188,2.07812 q -0.48438,0.15625 -1.5625,0.39063 -1.0625,0.21875 -1.39063,0.4375 -0.5,0.35937 -0.5,0.90625 0,0.53125 0.40625,0.9375 0.40625,0.39062 1.01563,0.39062 0.70312,0 1.32812,-0.46875 0.46875,-0.34375 0.60938,-0.84375 0.0937,-0.32812 0.0937,-1.25 z m 13.48507,-2.17187 -2.53125,0.45312 q -0.125,-0.75 -0.57812,-1.125 -0.45313,-0.39062 -1.17188,-0.39062 -0.95312,0 -1.53125,0.65625 -0.5625,0.65625 -0.5625,2.20312 0,1.73438 0.57813,2.4375 0.57812,0.70313 1.54687,0.70313 0.73438,0 1.20313,-0.40625 0.46875,-0.42188 0.65625,-1.42188 l 2.51562,0.42188 q -0.39062,1.73437 -1.51562,2.625 -1.10938,0.875 -2.96875,0.875 -2.125,0 -3.39063,-1.32813 -1.25,-1.34375 -1.25,-3.71875 0,-2.39062 1.26563,-3.71875 1.26562,-1.34375 3.42187,-1.34375 1.76563,0 2.79688,0.76563 1.04687,0.75 1.51562,2.3125 z m 7.53199,3.73437 2.54687,0.42188 q -0.48437,1.40625 -1.54687,2.14062 -1.0625,0.73438 -2.65625,0.73438 -2.51563,0 -3.73438,-1.65625 -0.95312,-1.3125 -0.95312,-3.32813 0,-2.40625 1.25,-3.76562 1.26562,-1.35938 3.1875,-1.35938 2.15625,0 3.40625,1.42188 1.25,1.42187 1.1875,4.375 h -6.40625 q 0.0312,1.14062 0.60937,1.78125 0.59375,0.625 1.48438,0.625 0.59375,0 1,-0.32813 0.42187,-0.32812 0.625,-1.0625 z m 0.15625,-2.59375 q -0.0312,-1.10937 -0.57813,-1.6875 -0.54687,-0.57812 -1.32812,-0.57812 -0.84375,0 -1.39063,0.60937 -0.54687,0.60938 -0.53125,1.65625 z"
     fill-rule="nonzero"
     id="path51" />
  <path
     fill="#000000"
     fill-opacity="0"
     d="M 8.5740635,195.04199 H 141.7394 v 42.01576 H 8.5740635 Z"
     fill-rule="evenodd"
     id="path53" />
  <path
     fill="#1155cc"
     d="m 18.933444,221.96199 v -13.35937 h 5.01562 q 1.53125,0 2.45313,0.40625 0.92187,0.40625 1.4375,1.25 0.53125,0.84375 0.53125,1.76562 0,0.85938 -0.46875,1.625 -0.45313,0.75 -1.39063,1.20313 1.20313,0.35937 1.85938,1.21875 0.65625,0.85937 0.65625,2.01562 0,0.9375 -0.40625,1.75 -0.39063,0.79688 -0.98438,1.23438 -0.57812,0.4375 -1.45312,0.67187 -0.875,0.21875 -2.15625,0.21875 z m 1.78125,-7.75 h 2.875 q 1.1875,0 1.6875,-0.14062 0.67187,-0.20313 1.01562,-0.67188 0.34375,-0.46875 0.34375,-1.17187 0,-0.65625 -0.32812,-1.15625 -0.3125,-0.51563 -0.90625,-0.70313 -0.59375,-0.1875 -2.03125,-0.1875 h -2.65625 z m 0,6.17188 h 3.3125 q 0.85937,0 1.20312,-0.0625 0.60938,-0.10938 1.01563,-0.35938 0.42187,-0.26562 0.6875,-0.75 0.26562,-0.48437 0.26562,-1.125 0,-0.75 -0.39062,-1.29687 -0.375,-0.54688 -1.0625,-0.76563 -0.67188,-0.23437 -1.95313,-0.23437 h -3.07812 z m 16.84982,0.39062 q -0.92187,0.76563 -1.76562,1.09375 -0.82813,0.3125 -1.79688,0.3125 -1.59375,0 -2.45312,-0.78125 -0.85938,-0.78125 -0.85938,-1.98437 0,-0.71875 0.32813,-1.29688 0.32812,-0.59375 0.84375,-0.9375 0.53125,-0.35937 1.1875,-0.54687 0.46875,-0.125 1.45312,-0.25 1.98438,-0.23438 2.92188,-0.5625 0.0156,-0.34375 0.0156,-0.42188 0,-1 -0.46875,-1.42187 -0.625,-0.54688 -1.875,-0.54688 -1.15625,0 -1.70312,0.40625 -0.54688,0.40625 -0.8125,1.42188 l -1.60938,-0.21875 q 0.21875,-1.01563 0.71875,-1.64063 0.5,-0.64062 1.45313,-0.98437 0.95312,-0.34375 2.1875,-0.34375 1.25,0 2.01562,0.29687 0.78125,0.28125 1.14063,0.73438 0.375,0.4375 0.51562,1.10937 0.0781,0.42188 0.0781,1.51563 v 2.1875 q 0,2.28125 0.10937,2.89062 0.10938,0.59375 0.40625,1.15625 h -1.70312 q -0.26563,-0.51562 -0.32813,-1.1875 z m -0.14062,-3.67187 q -0.89063,0.375 -2.67188,0.625 -1.01562,0.14062 -1.4375,0.32812 -0.42187,0.1875 -0.65625,0.53125 -0.21875,0.34375 -0.21875,0.78125 0,0.65625 0.5,1.09375 0.5,0.4375 1.45313,0.4375 0.9375,0 1.67187,-0.40625 0.75,-0.42187 1.09375,-1.14062 0.26563,-0.5625 0.26563,-1.64063 z m 3.54759,1.96875 1.625,-0.25 q 0.125,0.96875 0.75,1.5 0.625,0.51562 1.75,0.51562 1.125,0 1.67188,-0.45312 0.54687,-0.46875 0.54687,-1.09375 0,-0.54688 -0.48437,-0.875 -0.32813,-0.21875 -1.67188,-0.54688 -1.8125,-0.46875 -2.51562,-0.79687 -0.6875,-0.32813 -1.04688,-0.90625 -0.35937,-0.59375 -0.35937,-1.3125 0,-0.64063 0.29687,-1.1875 0.29688,-0.5625 0.8125,-0.92188 0.375,-0.28125 1.03125,-0.46875 0.67188,-0.20312 1.42188,-0.20312 1.14062,0 2,0.32812 0.85937,0.32813 1.26562,0.89063 0.42188,0.5625 0.57813,1.5 l -1.60938,0.21875 q -0.10937,-0.75 -0.64062,-1.17188 -0.51563,-0.42187 -1.46875,-0.42187 -1.14063,0 -1.625,0.375 -0.46875,0.375 -0.46875,0.875 0,0.3125 0.1875,0.57812 0.20312,0.26563 0.64062,0.4375 0.23438,0.0937 1.4375,0.42188 1.75,0.45312 2.4375,0.75 0.6875,0.29687 1.07813,0.85937 0.39062,0.5625 0.39062,1.40625 0,0.82813 -0.48437,1.54688 -0.46875,0.71875 -1.375,1.125 -0.90625,0.39062 -2.04688,0.39062 -1.875,0 -2.875,-0.78125 -0.98437,-0.78125 -1.25,-2.32812 z m 16.60938,-0.21875 1.6875,0.20312 q -0.40625,1.48438 -1.48438,2.3125 -1.07812,0.8125 -2.76562,0.8125 -2.125,0 -3.375,-1.29687 -1.23438,-1.3125 -1.23438,-3.67188 0,-2.45312 1.25,-3.79687 1.26563,-1.34375 3.26563,-1.34375 1.9375,0 3.15625,1.32812 1.23437,1.3125 1.23437,3.70313 0,0.15625 0,0.4375 h -7.21875 q 0.0937,1.59375 0.90625,2.45312 0.8125,0.84375 2.01563,0.84375 0.90625,0 1.54687,-0.46875 0.64063,-0.48437 1.01563,-1.51562 z m -5.39063,-2.65625 h 5.40625 q -0.10937,-1.21875 -0.625,-1.82813 -0.78125,-0.95312 -2.03125,-0.95312 -1.125,0 -1.90625,0.76562 -0.76562,0.75 -0.84375,2.01563 z m 14.4809,5.76562 v -13.35937 h 2.65625 l 3.15625,9.45312 q 0.4375,1.32813 0.64062,1.98438 0.23438,-0.73438 0.70313,-2.14063 l 3.20312,-9.29687 h 2.375 v 13.35937 h -1.70312 v -11.17187 l -3.875,11.17187 h -1.59375 l -3.85938,-11.375 v 11.375 z m 22.00955,-3.10937 1.6875,0.20312 q -0.40625,1.48438 -1.48438,2.3125 -1.07812,0.8125 -2.76562,0.8125 -2.125,0 -3.375,-1.29687 -1.23438,-1.3125 -1.23438,-3.67188 0,-2.45312 1.25,-3.79687 1.26563,-1.34375 3.26563,-1.34375 1.9375,0 3.15625,1.32812 1.23437,1.3125 1.23437,3.70313 0,0.15625 0,0.4375 h -7.21875 q 0.0937,1.59375 0.90625,2.45312 0.8125,0.84375 2.01563,0.84375 0.90625,0 1.54687,-0.46875 0.64063,-0.48437 1.01563,-1.51562 z m -5.39063,-2.65625 h 5.40625 q -0.10937,-1.21875 -0.625,-1.82813 -0.78125,-0.95312 -2.03125,-0.95312 -1.125,0 -1.90625,0.76562 -0.76562,0.75 -0.84375,2.01563 z m 8.4851,2.875 1.625,-0.25 q 0.125,0.96875 0.75,1.5 0.625,0.51562 1.75,0.51562 1.125,0 1.67187,-0.45312 0.54688,-0.46875 0.54688,-1.09375 0,-0.54688 -0.48438,-0.875 -0.32812,-0.21875 -1.67187,-0.54688 -1.8125,-0.46875 -2.51563,-0.79687 -0.6875,-0.32813 -1.04687,-0.90625 -0.35938,-0.59375 -0.35938,-1.3125 0,-0.64063 0.29688,-1.1875 0.29687,-0.5625 0.8125,-0.92188 0.375,-0.28125 1.03125,-0.46875 0.67187,-0.20312 1.42187,-0.20312 1.14063,0 2,0.32812 0.85938,0.32813 1.26563,0.89063 0.42187,0.5625 0.57812,1.5 l -1.60937,0.21875 q -0.10938,-0.75 -0.64063,-1.17188 -0.51562,-0.42187 -1.46875,-0.42187 -1.14062,0 -1.625,0.375 -0.46875,0.375 -0.46875,0.875 0,0.3125 0.1875,0.57812 0.20313,0.26563 0.64063,0.4375 0.23437,0.0937 1.4375,0.42188 1.75,0.45312 2.4375,0.75 0.6875,0.29687 1.07812,0.85937 0.39063,0.5625 0.39063,1.40625 0,0.82813 -0.48438,1.54688 -0.46875,0.71875 -1.375,1.125 -0.90625,0.39062 -2.04687,0.39062 -1.875,0 -2.875,-0.78125 -0.98438,-0.78125 -1.25,-2.32812 z m 9.984366,2.89062 v -13.35937 h 1.64063 v 4.79687 q 1.14062,-1.32812 2.89062,-1.32812 1.07813,0 1.85938,0.42187 0.79687,0.42188 1.14062,1.17188 0.34375,0.75 0.34375,2.17187 v 6.125 h -1.64062 v -6.125 q 0,-1.23437 -0.53125,-1.79687 -0.53125,-0.5625 -1.51563,-0.5625 -0.71875,0 -1.35937,0.39062 -0.64063,0.375 -0.92188,1.01563 -0.26562,0.64062 -0.26562,1.78125 v 5.29687 z"
     fill-rule="nonzero"
     id="path55" />
  <path
     fill="#000000"
     fill-opacity="0"
     d="m 281.18822,302.76641 h 163.27557 v 64.62991 H 281.18822 Z"
     fill-rule="evenodd"
     id="path57" />
  <path
     fill="#000000"
     d="M 291.5476,329.68638 V 316.327 h 5.01563 q 1.53125,0 2.45312,0.40625 0.92188,0.40625 1.4375,1.25 0.53125,0.84375 0.53125,1.76563 0,0.85937 -0.46875,1.625 -0.45312,0.75 -1.39062,1.20312 1.20312,0.35938 1.85937,1.21875 0.65625,0.85938 0.65625,2.01563 0,0.9375 -0.40625,1.75 -0.39062,0.79687 -0.98437,1.23437 -0.57813,0.4375 -1.45313,0.67188 -0.875,0.21875 -2.15625,0.21875 z m 1.78125,-7.75 h 2.875 q 1.1875,0 1.6875,-0.14063 0.67188,-0.20312 1.01563,-0.67187 0.34375,-0.46875 0.34375,-1.17188 0,-0.65625 -0.32813,-1.15625 -0.3125,-0.51562 -0.90625,-0.70312 -0.59375,-0.1875 -2.03125,-0.1875 h -2.65625 z m 0,6.17187 h 3.3125 q 0.85938,0 1.20313,-0.0625 0.60937,-0.10937 1.01562,-0.35937 0.42188,-0.26563 0.6875,-0.75 0.26563,-0.48438 0.26563,-1.125 0,-0.75 -0.39063,-1.29688 -0.375,-0.54687 -1.0625,-0.76562 -0.67187,-0.23438 -1.95312,-0.23438 h -3.07813 z m 16.84982,0.39063 q -0.92187,0.76562 -1.76562,1.09375 -0.82813,0.3125 -1.79688,0.3125 -1.59375,0 -2.45312,-0.78125 -0.85938,-0.78125 -0.85938,-1.98438 0,-0.71875 0.32813,-1.29687 0.32812,-0.59375 0.84375,-0.9375 0.53125,-0.35938 1.1875,-0.54688 0.46875,-0.125 1.45312,-0.25 1.98438,-0.23437 2.92188,-0.5625 0.0156,-0.34375 0.0156,-0.42187 0,-1 -0.46875,-1.42188 -0.625,-0.54687 -1.875,-0.54687 -1.15625,0 -1.70312,0.40625 -0.54688,0.40625 -0.8125,1.42187 l -1.60938,-0.21875 q 0.21875,-1.01562 0.71875,-1.64062 0.5,-0.64063 1.45313,-0.98438 0.95312,-0.34375 2.1875,-0.34375 1.25,0 2.01562,0.29688 0.78125,0.28125 1.14063,0.73437 0.375,0.4375 0.51562,1.10938 0.0781,0.42187 0.0781,1.51562 v 2.1875 q 0,2.28125 0.10937,2.89063 0.10938,0.59375 0.40625,1.15625 h -1.70312 q -0.26563,-0.51563 -0.32813,-1.1875 z m -0.14062,-3.67188 q -0.89063,0.375 -2.67188,0.625 -1.01562,0.14063 -1.4375,0.32813 -0.42187,0.1875 -0.65625,0.53125 -0.21875,0.34375 -0.21875,0.78125 0,0.65625 0.5,1.09375 0.5,0.4375 1.45313,0.4375 0.9375,0 1.67187,-0.40625 0.75,-0.42188 1.09375,-1.14063 0.26563,-0.5625 0.26563,-1.64062 z m 4.20386,4.85938 V 316.327 h 1.64062 v 7.625 l 3.89063,-3.9375 h 2.10937 l -3.6875,3.59375 4.0625,6.07813 h -2.01562 l -3.20313,-4.95313 -1.15625,1.125 v 3.82813 z m 9.32812,-11.46875 V 316.327 h 1.64063 v 1.89063 z m 0,11.46875 v -9.67188 h 1.64063 v 9.67188 z m 4.14481,0 v -9.67188 h 1.46875 v 1.375 q 1.0625,-1.59375 3.07812,-1.59375 0.875,0 1.60938,0.3125 0.73437,0.3125 1.09375,0.82813 0.375,0.5 0.51562,1.20312 0.0937,0.45313 0.0937,1.59375 v 5.95313 h -1.64062 v -5.89063 q 0,-1 -0.20313,-1.48437 -0.1875,-0.5 -0.67187,-0.79688 -0.48438,-0.29687 -1.14063,-0.29687 -1.04687,0 -1.8125,0.67187 -0.75,0.65625 -0.75,2.51563 v 5.28125 z m 10.06323,0.79687 1.59375,0.23438 q 0.10937,0.75 0.5625,1.07812 0.60937,0.45313 1.67187,0.45313 1.14063,0 1.75,-0.45313 0.625,-0.45312 0.84375,-1.26562 0.125,-0.5 0.10938,-2.10938 -1.0625,1.26563 -2.67188,1.26563 -2,0 -3.09375,-1.4375 -1.09375,-1.4375 -1.09375,-3.45313 0,-1.39062 0.5,-2.5625 0.51563,-1.17187 1.45313,-1.79687 0.95312,-0.64063 2.25,-0.64063 1.70312,0 2.8125,1.375 v -1.15625 h 1.51562 v 8.35938 q 0,2.26562 -0.46875,3.20312 -0.45312,0.9375 -1.45312,1.48438 -0.98438,0.54687 -2.45313,0.54687 -1.71875,0 -2.79687,-0.78125 -1.0625,-0.76562 -1.03125,-2.34375 z m 1.35937,-5.8125 q 0,1.90625 0.75,2.78125 0.76563,0.875 1.90625,0.875 1.125,0 1.89063,-0.85937 0.76562,-0.875 0.76562,-2.73438 0,-1.78125 -0.79687,-2.67187 -0.78125,-0.90625 -1.89063,-0.90625 -1.09375,0 -1.85937,0.89062 -0.76563,0.875 -0.76563,2.625 z m 14.49652,5.01563 v -9.67188 h 1.46875 v 1.46875 q 0.5625,-1.03125 1.03125,-1.35937 0.48438,-0.32813 1.0625,-0.32813 0.82813,0 1.6875,0.53125 l -0.5625,1.51563 q -0.60937,-0.35938 -1.20312,-0.35938 -0.54688,0 -0.96875,0.32813 -0.42188,0.32812 -0.60938,0.89062 -0.28125,0.875 -0.28125,1.92188 v 5.0625 z m 12.54081,-1.1875 q -0.92188,0.76562 -1.76563,1.09375 -0.82812,0.3125 -1.79687,0.3125 -1.59375,0 -2.45313,-0.78125 -0.85937,-0.78125 -0.85937,-1.98438 0,-0.71875 0.32812,-1.29687 0.32813,-0.59375 0.84375,-0.9375 0.53125,-0.35938 1.1875,-0.54688 0.46875,-0.125 1.45313,-0.25 1.98437,-0.23437 2.92187,-0.5625 0.0156,-0.34375 0.0156,-0.42187 0,-1 -0.46875,-1.42188 -0.625,-0.54687 -1.875,-0.54687 -1.15625,0 -1.70313,0.40625 -0.54687,0.40625 -0.8125,1.42187 l -1.60937,-0.21875 q 0.21875,-1.01562 0.71875,-1.64062 0.5,-0.64063 1.45312,-0.98438 0.95313,-0.34375 2.1875,-0.34375 1.25,0 2.01563,0.29688 0.78125,0.28125 1.14062,0.73437 0.375,0.4375 0.51563,1.10938 0.0781,0.42187 0.0781,1.51562 v 2.1875 q 0,2.28125 0.10938,2.89063 0.10937,0.59375 0.40625,1.15625 h -1.70313 q -0.26562,-0.51563 -0.32812,-1.1875 z m -0.14063,-3.67188 q -0.89062,0.375 -2.67187,0.625 -1.01563,0.14063 -1.4375,0.32813 -0.42188,0.1875 -0.65625,0.53125 -0.21875,0.34375 -0.21875,0.78125 0,0.65625 0.5,1.09375 0.5,0.4375 1.45312,0.4375 0.9375,0 1.67188,-0.40625 0.75,-0.42188 1.09375,-1.14063 0.26562,-0.5625 0.26562,-1.64062 z m 4.1257,8.57813 -0.1875,-1.53125 q 0.54688,0.14062 0.9375,0.14062 0.54688,0 0.875,-0.1875 0.32813,-0.17187 0.54688,-0.5 0.15625,-0.25 0.5,-1.21875 0.0469,-0.14062 0.14062,-0.40625 l -3.67187,-9.6875 h 1.76562 l 2.01563,5.59375 q 0.39062,1.07813 0.70312,2.25 0.28125,-1.125 0.67188,-2.20312 l 2.07812,-5.64063 h 1.64063 l -3.6875,9.82813 q -0.59375,1.60937 -0.92188,2.20312 -0.4375,0.8125 -1,1.1875 -0.5625,0.375 -1.34375,0.375 -0.48437,0 -1.0625,-0.20312 z m 8.75,-6.60938 1.625,-0.25 q 0.125,0.96875 0.75,1.5 0.625,0.51563 1.75,0.51563 1.125,0 1.67188,-0.45313 0.54687,-0.46875 0.54687,-1.09375 0,-0.54687 -0.48437,-0.875 -0.32813,-0.21875 -1.67188,-0.54687 -1.8125,-0.46875 -2.51562,-0.79688 -0.6875,-0.32812 -1.04688,-0.90625 -0.35937,-0.59375 -0.35937,-1.3125 0,-0.64062 0.29687,-1.1875 0.29688,-0.5625 0.8125,-0.92187 0.375,-0.28125 1.03125,-0.46875 0.67188,-0.20313 1.42188,-0.20313 1.14062,0 2,0.32813 0.85937,0.32812 1.26562,0.89062 0.42188,0.5625 0.57813,1.5 l -1.60938,0.21875 q -0.10937,-0.75 -0.64062,-1.17187 -0.51563,-0.42188 -1.46875,-0.42188 -1.14063,0 -1.625,0.375 -0.46875,0.375 -0.46875,0.875 0,0.3125 0.1875,0.57813 0.20312,0.26562 0.64062,0.4375 0.23438,0.0937 1.4375,0.42187 1.75,0.45313 2.4375,0.75 0.6875,0.29688 1.07813,0.85938 0.39062,0.5625 0.39062,1.40625 0,0.82812 -0.48437,1.54687 -0.46875,0.71875 -1.375,1.125 -0.90625,0.39063 -2.04688,0.39063 -1.875,0 -2.875,-0.78125 -0.98437,-0.78125 -1.25,-2.32813 z"
     fill-rule="nonzero"
     id="path59" />
  <path
     fill="#000000"
     d="m 294.5476,356.00828 q -1.35937,-1.70313 -2.29687,-4 -0.9375,-2.29688 -0.9375,-4.76563 0,-2.15625 0.70312,-4.14062 0.82813,-2.3125 2.53125,-4.59375 h 1.17188 q -1.09375,1.89062 -1.45313,2.70312 -0.54687,1.25 -0.875,2.625 -0.39062,1.70313 -0.39062,3.42188 0,4.375 2.71875,8.75 z m 3.07205,-3.92188 v -9.67187 h 1.46875 v 1.46875 q 0.5625,-1.03125 1.03125,-1.35938 0.48438,-0.32812 1.0625,-0.32812 0.82813,0 1.6875,0.53125 l -0.5625,1.51562 q -0.60937,-0.35937 -1.20312,-0.35937 -0.54688,0 -0.96875,0.32812 -0.42188,0.32813 -0.60938,0.89063 -0.28125,0.875 -0.28125,1.92187 v 5.0625 z m 12.8533,-3.10937 1.6875,0.20312 q -0.40625,1.48438 -1.48437,2.3125 -1.07813,0.8125 -2.76563,0.8125 -2.125,0 -3.375,-1.29687 -1.23437,-1.3125 -1.23437,-3.67188 0,-2.45312 1.25,-3.79687 1.26562,-1.34375 3.26562,-1.34375 1.9375,0 3.15625,1.32812 1.23438,1.3125 1.23438,3.70313 0,0.15625 0,0.4375 h -7.21875 q 0.0937,1.59375 0.90625,2.45312 0.8125,0.84375 2.01562,0.84375 0.90625,0 1.54688,-0.46875 0.64062,-0.48437 1.01562,-1.51562 z m -5.39062,-2.65625 h 5.40625 q -0.10938,-1.21875 -0.625,-1.82813 -0.78125,-0.95312 -2.03125,-0.95312 -1.125,0 -1.90625,0.76562 -0.76563,0.75 -0.84375,2.01563 z m 8.50073,1.75 v -1.64063 h 5.03125 v 1.64063 z m 6.19705,1.125 1.625,-0.25 q 0.125,0.96875 0.75,1.5 0.625,0.51562 1.75,0.51562 1.125,0 1.67188,-0.45312 0.54687,-0.46875 0.54687,-1.09375 0,-0.54688 -0.48437,-0.875 -0.32813,-0.21875 -1.67188,-0.54688 -1.8125,-0.46875 -2.51562,-0.79687 -0.6875,-0.32813 -1.04688,-0.90625 -0.35937,-0.59375 -0.35937,-1.3125 0,-0.64063 0.29687,-1.1875 0.29688,-0.5625 0.8125,-0.92188 0.375,-0.28125 1.03125,-0.46875 0.67188,-0.20312 1.42188,-0.20312 1.14062,0 2,0.32812 0.85937,0.32813 1.26562,0.89063 0.42188,0.5625 0.57813,1.5 l -1.60938,0.21875 q -0.10937,-0.75 -0.64062,-1.17188 -0.51563,-0.42187 -1.46875,-0.42187 -1.14063,0 -1.625,0.375 -0.46875,0.375 -0.46875,0.875 0,0.3125 0.1875,0.57812 0.20312,0.26563 0.64062,0.4375 0.23438,0.0937 1.4375,0.42188 1.75,0.45312 2.4375,0.75 0.6875,0.29687 1.07813,0.85937 0.39062,0.5625 0.39062,1.40625 0,0.82813 -0.48437,1.54688 -0.46875,0.71875 -1.375,1.125 -0.90625,0.39062 -2.04688,0.39062 -1.875,0 -2.875,-0.78125 -0.98437,-0.78125 -1.25,-2.32812 z m 16.29688,1.70312 q -0.92188,0.76563 -1.76563,1.09375 -0.82812,0.3125 -1.79687,0.3125 -1.59375,0 -2.45313,-0.78125 -0.85937,-0.78125 -0.85937,-1.98437 0,-0.71875 0.32812,-1.29688 0.32813,-0.59375 0.84375,-0.9375 0.53125,-0.35937 1.1875,-0.54687 0.46875,-0.125 1.45313,-0.25 1.98437,-0.23438 2.92187,-0.5625 0.0156,-0.34375 0.0156,-0.42188 0,-1 -0.46875,-1.42187 -0.625,-0.54688 -1.875,-0.54688 -1.15625,0 -1.70313,0.40625 -0.54687,0.40625 -0.8125,1.42188 l -1.60937,-0.21875 q 0.21875,-1.01563 0.71875,-1.64063 0.5,-0.64062 1.45312,-0.98437 0.95313,-0.34375 2.1875,-0.34375 1.25,0 2.01563,0.29687 0.78125,0.28125 1.14062,0.73438 0.375,0.4375 0.51563,1.10937 0.0781,0.42188 0.0781,1.51563 v 2.1875 q 0,2.28125 0.10938,2.89062 0.10937,0.59375 0.40625,1.15625 h -1.70313 q -0.26562,-0.51562 -0.32812,-1.1875 z m -0.14063,-3.67187 q -0.89062,0.375 -2.67187,0.625 -1.01563,0.14062 -1.4375,0.32812 -0.42188,0.1875 -0.65625,0.53125 -0.21875,0.34375 -0.21875,0.78125 0,0.65625 0.5,1.09375 0.5,0.4375 1.45312,0.4375 0.9375,0 1.67188,-0.40625 0.75,-0.42187 1.09375,-1.14062 0.26562,-0.5625 0.26562,-1.64063 z m 4.20383,4.85937 v -9.67187 h 1.46875 v 1.35937 q 0.45312,-0.71875 1.20312,-1.14062 0.76563,-0.4375 1.71875,-0.4375 1.07813,0 1.76563,0.45312 0.6875,0.4375 0.96875,1.23438 1.15625,-1.6875 2.98437,-1.6875 1.45313,0 2.21875,0.79687 0.78125,0.79688 0.78125,2.45313 v 6.64062 h -1.64062 v -6.09375 q 0,-0.98437 -0.15625,-1.40625 -0.15625,-0.4375 -0.57813,-0.70312 -0.42187,-0.26563 -0.98437,-0.26563 -1.01563,0 -1.6875,0.6875 -0.67188,0.67188 -0.67188,2.15625 v 5.625 h -1.64062 v -6.28125 q 0,-1.09375 -0.40625,-1.64062 -0.40625,-0.54688 -1.3125,-0.54688 -0.6875,0 -1.28125,0.35938 -0.59375,0.35937 -0.85938,1.0625 -0.25,0.70312 -0.25,2.03125 v 5.01562 z m 15.5408,3.70313 v -13.375 h 1.48438 v 1.25 q 0.53125,-0.73438 1.1875,-1.09375 0.67187,-0.375 1.625,-0.375 1.23437,0 2.17187,0.64062 0.95313,0.625 1.4375,1.79688 0.48438,1.15625 0.48438,2.54687 0,1.48438 -0.53125,2.67188 -0.53125,1.1875 -1.54688,1.82812 -1.01562,0.625 -2.14062,0.625 -0.8125,0 -1.46875,-0.34375 -0.65625,-0.34375 -1.0625,-0.875 v 4.70313 z m 1.48438,-8.48438 q 0,1.85938 0.75,2.76563 0.76562,0.89062 1.82812,0.89062 1.09375,0 1.875,-0.92187 0.78125,-0.9375 0.78125,-2.875 0,-1.84375 -0.76562,-2.76563 -0.75,-0.92187 -1.8125,-0.92187 -1.04688,0 -1.85938,0.98437 -0.79687,0.96875 -0.79687,2.84375 z m 8.84448,4.78125 v -13.35937 h 1.64062 v 13.35937 z m 4.19168,-11.46875 v -1.89062 h 1.64063 v 1.89062 z m 0,11.46875 v -9.67187 h 1.64063 v 9.67187 z m 4.14484,0 v -9.67187 h 1.46875 v 1.375 q 1.0625,-1.59375 3.07812,-1.59375 0.875,0 1.60938,0.3125 0.73437,0.3125 1.09375,0.82812 0.375,0.5 0.51562,1.20313 0.0937,0.45312 0.0937,1.59375 v 5.95312 h -1.64062 v -5.89062 q 0,-1 -0.20313,-1.48438 -0.1875,-0.5 -0.67187,-0.79687 -0.48438,-0.29688 -1.14063,-0.29688 -1.04687,0 -1.8125,0.67188 -0.75,0.65625 -0.75,2.51562 v 5.28125 z m 10.0632,0.79688 1.59375,0.23437 q 0.10937,0.75 0.5625,1.07813 0.60937,0.45312 1.67187,0.45312 1.14063,0 1.75,-0.45312 0.62503,-0.45313 0.84378,-1.26563 0.125,-0.5 0.10938,-2.10937 -1.06253,1.26562 -2.67191,1.26562 -2,0 -3.09375,-1.4375 -1.09375,-1.4375 -1.09375,-3.45312 0,-1.39063 0.5,-2.5625 0.51563,-1.17188 1.45313,-1.79688 0.95312,-0.64062 2.25,-0.64062 1.70312,0 2.81253,1.375 v -1.15625 h 1.51562 v 8.35937 q 0,2.26563 -0.46875,3.20313 -0.45312,0.9375 -1.45312,1.48437 -0.98441,0.54688 -2.45316,0.54688 -1.71875,0 -2.79687,-0.78125 -1.0625,-0.76563 -1.03125,-2.34375 z m 1.35937,-5.8125 q 0,1.90625 0.75,2.78125 0.76563,0.875 1.90625,0.875 1.125,0 1.89066,-0.85938 0.76562,-0.875 0.76562,-2.73437 0,-1.78125 -0.79687,-2.67188 -0.78128,-0.90625 -1.89066,-0.90625 -1.09375,0 -1.85937,0.89063 -0.76563,0.875 -0.76563,2.625 z m 10.40696,8.9375 h -1.1875 q 2.73437,-4.375 2.73437,-8.75 0,-1.71875 -0.39062,-3.39063 -0.3125,-1.375 -0.875,-2.625 -0.35938,-0.82812 -1.46875,-2.73437 h 1.1875 q 1.70312,2.28125 2.53125,4.59375 0.6875,1.98437 0.6875,4.14062 0,2.46875 -0.9375,4.76563 -0.9375,2.29687 -2.28125,4 z"
     fill-rule="nonzero"
     id="path61" />
  <path
     fill="#000000"
     fill-opacity="0"
     d="M 478.32208,60.124674 H 740.24334 V 102.14041 H 478.32208 Z"
     fill-rule="evenodd"
     id="path63" />
  <path
     fill="#38761d"
     d="m 492.16582,87.044664 v -11.78124 h -4.40625 v -1.57813 h 10.57813 v 1.57813 h -4.40625 v 11.78124 z m 7.07831,0 v -9.67187 h 1.46875 v 1.46875 q 0.5625,-1.03125 1.03125,-1.35937 0.48437,-0.32813 1.0625,-0.32813 0.82812,0 1.6875,0.53125 l -0.5625,1.51563 q -0.60938,-0.35938 -1.20313,-0.35938 -0.54687,0 -0.96875,0.32813 -0.42187,0.32812 -0.60937,0.89062 -0.28125,0.875 -0.28125,1.92187 v 5.0625 z m 12.54077,-1.1875 q -0.92188,0.76562 -1.76563,1.09375 -0.82812,0.3125 -1.79687,0.3125 -1.59375,0 -2.45313,-0.78125 -0.85937,-0.78125 -0.85937,-1.98438 0,-0.71875 0.32812,-1.29687 0.32813,-0.59375 0.84375,-0.9375 0.53125,-0.35938 1.1875,-0.54688 0.46875,-0.125 1.45313,-0.25 1.98437,-0.23436 2.92187,-0.56249 0.0156,-0.34375 0.0156,-0.42187 0,-1 -0.46875,-1.42188 -0.625,-0.54687 -1.875,-0.54687 -1.15625,0 -1.70313,0.40625 -0.54687,0.40625 -0.8125,1.42187 l -1.60937,-0.21875 q 0.21875,-1.01562 0.71875,-1.64062 0.5,-0.64063 1.45312,-0.98438 0.95313,-0.34375 2.1875,-0.34375 1.25,0 2.01563,0.29688 0.78125,0.28125 1.14062,0.73437 0.375,0.4375 0.51563,1.10938 0.0781,0.42187 0.0781,1.51562 v 2.18749 q 0,2.28125 0.10938,2.89063 0.10937,0.59375 0.40625,1.15625 h -1.70313 q -0.26562,-0.51563 -0.32812,-1.1875 z m -0.14063,-3.67188 q -0.89062,0.375 -2.67187,0.625 -1.01563,0.14063 -1.4375,0.32813 -0.42188,0.1875 -0.65625,0.53125 -0.21875,0.34375 -0.21875,0.78125 0,0.65625 0.5,1.09375 0.5,0.4375 1.45312,0.4375 0.9375,0 1.67188,-0.40625 0.75,-0.42188 1.09375,-1.14063 0.26562,-0.5625 0.26562,-1.64062 z m 10.51636,1.3125 1.60938,0.21875 q -0.26563,1.65625 -1.35938,2.60938 -1.07812,0.9375 -2.67187,0.9375 -1.98438,0 -3.1875,-1.29688 -1.20313,-1.29687 -1.20313,-3.71875 0,-1.57811 0.51563,-2.74999 0.51562,-1.17187 1.57812,-1.75 1.0625,-0.59375 2.3125,-0.59375 1.57813,0 2.57813,0.79688 1,0.79687 1.28125,2.26562 l -1.59375,0.23438 q -0.23438,-0.96875 -0.8125,-1.45313 -0.57813,-0.5 -1.39063,-0.5 -1.23437,0 -2.01562,0.89063 -0.78125,0.89062 -0.78125,2.81249 0,1.95312 0.75,2.84375 0.75,0.875 1.95312,0.875 0.96875,0 1.60938,-0.59375 0.65625,-0.59375 0.82812,-1.82813 z m 3.01563,-7.92186 v -1.89063 h 1.64062 v 1.89063 z m 0,11.46874 v -9.67187 h 1.64062 v 9.67187 z m 4.14483,0 v -9.67187 h 1.46875 v 1.375 q 1.0625,-1.59375 3.07813,-1.59375 0.875,0 1.60937,0.3125 0.73438,0.3125 1.09375,0.82813 0.375,0.5 0.51563,1.20312 0.0937,0.45313 0.0937,1.59375 v 5.95312 h -1.64063 v -5.89062 q 0,-1 -0.20312,-1.48437 -0.1875,-0.5 -0.67188,-0.79688 -0.48437,-0.29687 -1.14062,-0.29687 -1.04688,0 -1.8125,0.67187 -0.75,0.65625 -0.75,2.51562 v 5.28125 z m 10.06317,0.79687 1.59375,0.23438 q 0.10938,0.75 0.5625,1.07812 0.60938,0.45313 1.67188,0.45313 1.14062,0 1.75,-0.45313 0.625,-0.45312 0.84375,-1.26562 0.125,-0.5 0.10937,-2.10938 -1.0625,1.26563 -2.67187,1.26563 -2,0 -3.09375,-1.4375 -1.09375,-1.4375 -1.09375,-3.45313 0,-1.39061 0.5,-2.56249 0.51562,-1.17187 1.45312,-1.79687 0.95313,-0.64063 2.25,-0.64063 1.70313,0 2.8125,1.375 v -1.15625 h 1.51563 v 8.35937 q 0,2.26562 -0.46875,3.20312 -0.45313,0.9375 -1.45313,1.48438 -0.98437,0.54687 -2.45312,0.54687 -1.71875,0 -2.79688,-0.78125 -1.0625,-0.76562 -1.03125,-2.34375 z m 1.35938,-5.8125 q 0,1.90625 0.75,2.78125 0.76562,0.875 1.90625,0.875 1.125,0 1.89062,-0.85937 0.76563,-0.875 0.76563,-2.73438 0,-1.78124 -0.79688,-2.67186 -0.78125,-0.90625 -1.89062,-0.90625 -1.09375,0 -1.85938,0.89062 -0.76562,0.875 -0.76562,2.62499 z m 14.63714,5.01563 v -13.35937 h 5.01563 q 1.53125,0 2.45312,0.40625 0.92188,0.40625 1.4375,1.25 0.53125,0.84375 0.53125,1.76563 0,0.85937 -0.46875,1.625 -0.45312,0.75 -1.39062,1.20312 1.20312,0.35938 1.85937,1.21875 0.65625,0.85937 0.65625,2.01562 0,0.9375 -0.40625,1.75 -0.39062,0.79687 -0.98437,1.23437 -0.57813,0.4375 -1.45313,0.67188 -0.875,0.21875 -2.15625,0.21875 z m 1.78125,-7.74999 h 2.875 q 1.1875,0 1.6875,-0.14063 0.67188,-0.20312 1.01563,-0.67187 0.34375,-0.46875 0.34375,-1.17188 0,-0.65625 -0.32813,-1.15625 -0.3125,-0.51562 -0.90625,-0.70312 -0.59375,-0.1875 -2.03125,-0.1875 h -2.65625 z m 0,6.17186 h 3.3125 q 0.85938,0 1.20313,-0.0625 0.60937,-0.10937 1.01562,-0.35937 0.42188,-0.26563 0.6875,-0.75 0.26563,-0.48438 0.26563,-1.125 0,-0.75 -0.39063,-1.29688 -0.375,-0.54687 -1.0625,-0.76561 -0.67187,-0.23438 -1.95312,-0.23438 h -3.07813 z m 9.92798,-3.26562 q 0,-2.68749 1.48438,-3.96874 1.25,-1.07813 3.04687,-1.07813 2,0 3.26563,1.3125 1.26562,1.29688 1.26562,3.60937 0,1.85937 -0.5625,2.9375 -0.5625,1.0625 -1.64062,1.65625 -1.0625,0.59375 -2.32813,0.59375 -2.03125,0 -3.28125,-1.29688 -1.25,-1.3125 -1.25,-3.76562 z m 1.6875,0 q 0,1.85937 0.79688,2.79687 0.8125,0.92188 2.04687,0.92188 1.21875,0 2.03125,-0.92188 0.8125,-0.9375 0.8125,-2.84375 0,-1.79686 -0.8125,-2.71874 -0.8125,-0.92187 -2.03125,-0.92187 -1.23437,0 -2.04687,0.92187 -0.79688,0.90625 -0.79688,2.76562 z m 15.62574,4.84375 v -1.42188 q -1.125,1.64063 -3.0625,1.64063 -0.85938,0 -1.60938,-0.32813 -0.73437,-0.32812 -1.09375,-0.82812 -0.35937,-0.5 -0.5,-1.21875 -0.10937,-0.46875 -0.10937,-1.53125 v -5.98437 h 1.64062 v 5.35937 q 0,1.28125 0.10938,1.73437 0.15625,0.64063 0.65625,1.01563 0.5,0.375 1.23437,0.375 0.73438,0 1.375,-0.375 0.65625,-0.39063 0.92188,-1.03125 0.26562,-0.65625 0.26562,-1.89063 v -5.18749 h 1.64063 v 9.67187 z m 4.04754,0 v -9.67187 h 1.46875 v 1.375 q 1.0625,-1.59375 3.07813,-1.59375 0.875,0 1.60937,0.3125 0.73438,0.3125 1.09375,0.82813 0.375,0.5 0.51563,1.20312 0.0937,0.45313 0.0937,1.59375 v 5.95312 h -1.64063 v -5.89062 q 0,-1 -0.20312,-1.48437 -0.1875,-0.5 -0.67188,-0.79688 -0.48437,-0.29687 -1.14062,-0.29687 -1.04688,0 -1.8125,0.67187 -0.75,0.65625 -0.75,2.51562 v 5.28125 z m 16.64136,0 v -1.21875 q -0.90625,1.4375 -2.70313,1.4375 -1.15625,0 -2.125,-0.64063 -0.96875,-0.64062 -1.5,-1.78125 -0.53125,-1.14062 -0.53125,-2.625 0,-1.45311 0.48438,-2.62499 0.48437,-1.1875 1.4375,-1.8125 0.96875,-0.625 2.17187,-0.625 0.875,0 1.54688,0.375 0.6875,0.35938 1.10937,0.95313 v -4.79688 h 1.64063 v 13.35937 z m -5.17188,-4.82813 q 0,1.85938 0.78125,2.78125 0.78125,0.92188 1.84375,0.92188 1.07813,0 1.82813,-0.875 0.75,-0.89063 0.75,-2.6875 0,-1.98437 -0.76563,-2.90624 -0.76562,-0.9375 -1.89062,-0.9375 -1.07813,0 -1.8125,0.89062 -0.73438,0.89063 -0.73438,2.81249 z m 8.62574,1.9375 1.625,-0.25 q 0.125,0.96875 0.75,1.5 0.625,0.51563 1.75,0.51563 1.125,0 1.67187,-0.45313 0.54688,-0.46875 0.54688,-1.09375 0,-0.54687 -0.48438,-0.875 -0.32812,-0.21875 -1.67187,-0.54687 -1.8125,-0.46875 -2.51563,-0.79688 -0.6875,-0.32812 -1.04687,-0.90624 -0.35938,-0.59375 -0.35938,-1.3125 0,-0.64062 0.29688,-1.1875 0.29687,-0.5625 0.8125,-0.92187 0.375,-0.28125 1.03125,-0.46875 0.67187,-0.20313 1.42187,-0.20313 1.14063,0 2,0.32813 0.85938,0.32812 1.26563,0.89062 0.42187,0.5625 0.57812,1.5 l -1.60937,0.21875 q -0.10938,-0.75 -0.64063,-1.17187 -0.51562,-0.42188 -1.46875,-0.42188 -1.14062,0 -1.625,0.375 -0.46875,0.375 -0.46875,0.875 0,0.3125 0.1875,0.57813 0.20313,0.26562 0.64063,0.4375 0.23437,0.0937 1.4375,0.42187 1.75,0.45312 2.4375,0.74999 0.6875,0.29688 1.07812,0.85938 0.39063,0.5625 0.39063,1.40625 0,0.82812 -0.48438,1.54687 -0.46875,0.71875 -1.375,1.125 -0.90625,0.39063 -2.04687,0.39063 -1.875,0 -2.875,-0.78125 -0.98438,-0.78125 -1.25,-2.32813 z"
     fill-rule="nonzero"
     id="path65" />
  <path
     fill="#000000"
     fill-opacity="0"
     d="m 168.08587,119.10498 31.46457,72.28346"
     fill-rule="evenodd"
     id="path67" />
  <path
     stroke="#595959"
     stroke-width="3"
     stroke-linejoin="round"
     stroke-linecap="butt"
     d="m 172.18932,128.53186 23.25763,53.42972"
     fill-rule="evenodd"
     id="path69" />
  <path
     fill="#595959"
     stroke="#595959"
     stroke-width="3"
     stroke-linecap="butt"
     d="m 172.18932,128.53186 4.43994,1.74686 -6.79297,-7.15248 0.60617,9.84553 z"
     fill-rule="evenodd"
     id="path71" />
  <path
     fill="#595959"
     stroke="#595959"
     stroke-width="3"
     stroke-linecap="butt"
     d="m 195.44699,181.96157 -4.43994,-1.74686 6.79297,7.15248 -0.60617,-9.84555 z"
     fill-rule="evenodd"
     id="path73" />
  <path
     fill="#000000"
     fill-opacity="0"
     d="m 175.73942,94.095794 h 261.9213 v 42.015746 h -261.9213 z"
     fill-rule="evenodd"
     id="path75" />
  <path
     fill="#000000"
     d="m 186.17692,121.01579 v -13.35938 h 4.60938 q 1.54687,0 2.375,0.20313 1.14062,0.25 1.95312,0.95312 1.0625,0.89063 1.57813,2.28125 0.53125,1.39063 0.53125,3.17188 0,1.51562 -0.35938,2.70312 -0.35937,1.17188 -0.92187,1.9375 -0.54688,0.76563 -1.20313,1.21875 -0.65625,0.4375 -1.59375,0.67188 -0.9375,0.21875 -2.14062,0.21875 z m 1.76563,-1.57813 h 2.85937 q 1.3125,0 2.0625,-0.23437 0.75,-0.25 1.20313,-0.70313 0.625,-0.625 0.96875,-1.6875 0.35937,-1.0625 0.35937,-2.57812 0,-2.09375 -0.6875,-3.21875 -0.6875,-1.125 -1.67187,-1.5 -0.70313,-0.28125 -2.28125,-0.28125 h -2.8125 z m 11.50421,-9.89062 v -1.89063 h 1.64062 v 1.89063 z m 0,11.46875 v -9.67188 h 1.64062 v 9.67188 z m 3.48855,-2.89063 1.625,-0.25 q 0.125,0.96875 0.75,1.5 0.625,0.51563 1.75,0.51563 1.125,0 1.67188,-0.45313 0.54687,-0.46875 0.54687,-1.09375 0,-0.54687 -0.48437,-0.875 -0.32813,-0.21875 -1.67188,-0.54687 -1.8125,-0.46875 -2.51562,-0.79688 -0.6875,-0.32812 -1.04688,-0.90625 -0.35937,-0.59375 -0.35937,-1.3125 0,-0.64062 0.29687,-1.1875 0.29688,-0.5625 0.8125,-0.92187 0.375,-0.28125 1.03125,-0.46875 0.67188,-0.20313 1.42188,-0.20313 1.14062,0 2,0.32813 0.85937,0.32812 1.26562,0.89062 0.42188,0.5625 0.57813,1.5 l -1.60938,0.21875 q -0.10937,-0.75 -0.64062,-1.17187 -0.51563,-0.42188 -1.46875,-0.42188 -1.14063,0 -1.625,0.375 -0.46875,0.375 -0.46875,0.875 0,0.3125 0.1875,0.57813 0.20312,0.26562 0.64062,0.4375 0.23438,0.0937 1.4375,0.42187 1.75,0.45313 2.4375,0.75 0.6875,0.29688 1.07813,0.85938 0.39062,0.5625 0.39062,1.40625 0,0.82812 -0.48437,1.54687 -0.46875,0.71875 -1.375,1.125 -0.90625,0.39063 -2.04688,0.39063 -1.875,0 -2.875,-0.78125 -0.98437,-0.78125 -1.25,-2.32813 z m 9.98438,6.59375 v -13.375 h 1.48437 v 1.25 q 0.53125,-0.73437 1.1875,-1.09375 0.67188,-0.375 1.625,-0.375 1.23438,0 2.17188,0.64063 0.95312,0.625 1.4375,1.79687 0.48437,1.15625 0.48437,2.54688 0,1.48437 -0.53125,2.67187 -0.53125,1.1875 -1.54687,1.82813 -1.01563,0.625 -2.14063,0.625 -0.8125,0 -1.46875,-0.34375 -0.65625,-0.34375 -1.0625,-0.875 v 4.70312 z m 1.48437,-8.48437 q 0,1.85937 0.75,2.76562 0.76563,0.89063 1.82813,0.89063 1.09375,0 1.875,-0.92188 0.78125,-0.9375 0.78125,-2.875 0,-1.84375 -0.76563,-2.76562 -0.75,-0.92188 -1.8125,-0.92188 -1.04687,0 -1.85937,0.98438 -0.79688,0.96875 -0.79688,2.84375 z m 8.84448,4.78125 v -13.35938 h 1.64063 v 13.35938 z m 10.50419,-1.1875 q -0.92188,0.76562 -1.76563,1.09375 -0.82812,0.3125 -1.79687,0.3125 -1.59375,0 -2.45313,-0.78125 -0.85937,-0.78125 -0.85937,-1.98438 0,-0.71875 0.32812,-1.29687 0.32813,-0.59375 0.84375,-0.9375 0.53125,-0.35938 1.1875,-0.54688 0.46875,-0.125 1.45313,-0.25 1.98437,-0.23437 2.92187,-0.5625 0.0156,-0.34375 0.0156,-0.42187 0,-1 -0.46875,-1.42188 -0.625,-0.54687 -1.875,-0.54687 -1.15625,0 -1.70313,0.40625 -0.54687,0.40625 -0.8125,1.42187 l -1.60937,-0.21875 q 0.21875,-1.01562 0.71875,-1.64062 0.5,-0.64063 1.45312,-0.98438 0.95313,-0.34375 2.1875,-0.34375 1.25,0 2.01563,0.29688 0.78125,0.28125 1.14062,0.73437 0.375,0.4375 0.51563,1.10938 0.0781,0.42187 0.0781,1.51562 v 2.1875 q 0,2.28125 0.10938,2.89063 0.10937,0.59375 0.40625,1.15625 h -1.70313 q -0.26562,-0.51563 -0.32812,-1.1875 z m -0.14063,-3.67188 q -0.89062,0.375 -2.67187,0.625 -1.01563,0.14063 -1.4375,0.32813 -0.42188,0.1875 -0.65625,0.53125 -0.21875,0.34375 -0.21875,0.78125 0,0.65625 0.5,1.09375 0.5,0.4375 1.45312,0.4375 0.9375,0 1.67188,-0.40625 0.75,-0.42188 1.09375,-1.14063 0.26562,-0.5625 0.26562,-1.64062 z m 10.51636,1.3125 1.60937,0.21875 q -0.26562,1.65625 -1.35937,2.60938 -1.07813,0.9375 -2.67188,0.9375 -1.98437,0 -3.1875,-1.29688 -1.20312,-1.29687 -1.20312,-3.71875 0,-1.57812 0.51562,-2.75 0.51563,-1.17187 1.57813,-1.75 1.0625,-0.59375 2.3125,-0.59375 1.57812,0 2.57812,0.79688 1,0.79687 1.28125,2.26562 l -1.59375,0.23438 q -0.23437,-0.96875 -0.8125,-1.45313 -0.57812,-0.5 -1.39062,-0.5 -1.23438,0 -2.01563,0.89063 -0.78125,0.89062 -0.78125,2.8125 0,1.95312 0.75,2.84375 0.75,0.875 1.95313,0.875 0.96875,0 1.60937,-0.59375 0.65625,-0.59375 0.82813,-1.82813 z m 9.64062,0.4375 1.6875,0.20313 q -0.40625,1.48437 -1.48437,2.3125 -1.07813,0.8125 -2.76563,0.8125 -2.125,0 -3.375,-1.29688 -1.23437,-1.3125 -1.23437,-3.67187 0,-2.45313 1.25,-3.79688 1.26562,-1.34375 3.26562,-1.34375 1.9375,0 3.15625,1.32813 1.23438,1.3125 1.23438,3.70312 0,0.15625 0,0.4375 h -7.21875 q 0.0937,1.59375 0.90625,2.45313 0.8125,0.84375 2.01562,0.84375 0.90625,0 1.54688,-0.46875 0.64062,-0.48438 1.01562,-1.51563 z m -5.39062,-2.65625 h 5.40625 q -0.10938,-1.21875 -0.625,-1.82812 -0.78125,-0.95313 -2.03125,-0.95313 -1.125,0 -1.90625,0.76563 -0.76563,0.75 -0.84375,2.01562 z m 9.14132,5.76563 v -9.67188 h 1.46875 v 1.35938 q 0.45313,-0.71875 1.20313,-1.14063 0.76562,-0.4375 1.71875,-0.4375 1.07812,0 1.76562,0.45313 0.6875,0.4375 0.96875,1.23437 1.15625,-1.6875 2.98438,-1.6875 1.45312,0 2.21875,0.79688 0.78125,0.79687 0.78125,2.45312 v 6.64063 h -1.64063 v -6.09375 q 0,-0.98438 -0.15625,-1.40625 -0.15625,-0.4375 -0.57812,-0.70313 -0.42188,-0.26562 -0.98438,-0.26562 -1.01562,0 -1.6875,0.6875 -0.67187,0.67187 -0.67187,2.15625 v 5.625 h -1.64063 v -6.28125 q 0,-1.09375 -0.40625,-1.64063 -0.40625,-0.54687 -1.3125,-0.54687 -0.6875,0 -1.28125,0.35937 -0.59375,0.35938 -0.85937,1.0625 -0.25,0.70313 -0.25,2.03125 v 5.01563 z m 22.16581,-3.10938 1.6875,0.20313 q -0.40625,1.48437 -1.48438,2.3125 -1.07812,0.8125 -2.76562,0.8125 -2.125,0 -3.375,-1.29688 -1.23438,-1.3125 -1.23438,-3.67187 0,-2.45313 1.25,-3.79688 1.26563,-1.34375 3.26563,-1.34375 1.9375,0 3.15625,1.32813 1.23437,1.3125 1.23437,3.70312 0,0.15625 0,0.4375 h -7.21875 q 0.0937,1.59375 0.90625,2.45313 0.8125,0.84375 2.01563,0.84375 0.90625,0 1.54687,-0.46875 0.64063,-0.48438 1.01563,-1.51563 z m -5.39063,-2.65625 h 5.40625 q -0.10937,-1.21875 -0.625,-1.82812 -0.78125,-0.95313 -2.03125,-0.95313 -1.125,0 -1.90625,0.76563 -0.76562,0.75 -0.84375,2.01562 z m 9.14136,5.76563 v -9.67188 h 1.46875 v 1.375 q 1.0625,-1.59375 3.07812,-1.59375 0.875,0 1.60938,0.3125 0.73437,0.3125 1.09375,0.82813 0.375,0.5 0.51562,1.20312 0.0937,0.45313 0.0937,1.59375 v 5.95313 h -1.64062 v -5.89063 q 0,-1 -0.20313,-1.48437 -0.1875,-0.5 -0.67187,-0.79688 -0.48438,-0.29687 -1.14063,-0.29687 -1.04687,0 -1.8125,0.67187 -0.75,0.65625 -0.75,2.51563 v 5.28125 z m 13.95382,-1.46875 0.23438,1.45312 q -0.6875,0.14063 -1.23438,0.14063 -0.89062,0 -1.39062,-0.28125 -0.48438,-0.28125 -0.6875,-0.73438 -0.20313,-0.46875 -0.20313,-1.9375 v -5.57812 h -1.20312 v -1.26563 h 1.20312 v -2.39062 l 1.625,-0.98438 v 3.375 h 1.65625 v 1.26563 h -1.65625 v 5.67187 q 0,0.6875 0.0781,0.89063 0.0937,0.20312 0.28125,0.32812 0.20312,0.10938 0.57812,0.10938 0.26563,0 0.71875,-0.0625 z m 6.99161,1.46875 v -13.35938 h 4.60938 q 1.54687,0 2.375,0.20313 1.14062,0.25 1.95312,0.95312 1.0625,0.89063 1.57813,2.28125 0.53125,1.39063 0.53125,3.17188 0,1.51562 -0.35938,2.70312 -0.35937,1.17188 -0.92187,1.9375 -0.54688,0.76563 -1.20313,1.21875 -0.65625,0.4375 -1.59375,0.67188 -0.9375,0.21875 -2.14062,0.21875 z m 1.76563,-1.57813 h 2.85937 q 1.3125,0 2.0625,-0.23437 0.75,-0.25 1.20313,-0.70313 0.625,-0.625 0.96875,-1.6875 0.35937,-1.0625 0.35937,-2.57812 0,-2.09375 -0.6875,-3.21875 -0.6875,-1.125 -1.67187,-1.5 -0.70313,-0.28125 -2.28125,-0.28125 h -2.8125 z m 11.50421,-9.89062 v -1.89063 h 1.64062 v 1.89063 z m 0,11.46875 v -9.67188 h 1.64062 v 9.67188 z m 4.12918,0 v -9.67188 h 1.46875 v 1.46875 q 0.5625,-1.03125 1.03125,-1.35937 0.48437,-0.32813 1.0625,-0.32813 0.82812,0 1.6875,0.53125 l -0.5625,1.51563 q -0.60938,-0.35938 -1.20313,-0.35938 -0.54687,0 -0.96875,0.32813 -0.42187,0.32812 -0.60937,0.89062 -0.28125,0.875 -0.28125,1.92188 v 5.0625 z m 12.8533,-3.10938 1.6875,0.20313 q -0.40625,1.48437 -1.48437,2.3125 -1.07813,0.8125 -2.76563,0.8125 -2.125,0 -3.375,-1.29688 -1.23437,-1.3125 -1.23437,-3.67187 0,-2.45313 1.25,-3.79688 1.26562,-1.34375 3.26562,-1.34375 1.9375,0 3.15625,1.32813 1.23438,1.3125 1.23438,3.70312 0,0.15625 0,0.4375 h -7.21875 q 0.0937,1.59375 0.90625,2.45313 0.8125,0.84375 2.01562,0.84375 0.90625,0 1.54688,-0.46875 0.64062,-0.48438 1.01562,-1.51563 z m -5.39062,-2.65625 h 5.40625 q -0.10938,-1.21875 -0.625,-1.82812 -0.78125,-0.95313 -2.03125,-0.95313 -1.125,0 -1.90625,0.76563 -0.76563,0.75 -0.84375,2.01562 z m 15.45385,2.21875 1.60938,0.21875 q -0.26563,1.65625 -1.35938,2.60938 -1.07812,0.9375 -2.67187,0.9375 -1.98438,0 -3.1875,-1.29688 -1.20313,-1.29687 -1.20313,-3.71875 0,-1.57812 0.51563,-2.75 0.51562,-1.17187 1.57812,-1.75 1.0625,-0.59375 2.3125,-0.59375 1.57813,0 2.57813,0.79688 1,0.79687 1.28125,2.26562 l -1.59375,0.23438 q -0.23438,-0.96875 -0.8125,-1.45313 -0.57813,-0.5 -1.39063,-0.5 -1.23437,0 -2.01562,0.89063 -0.78125,0.89062 -0.78125,2.8125 0,1.95312 0.75,2.84375 0.75,0.875 1.95312,0.875 0.96875,0 1.60938,-0.59375 0.65625,-0.59375 0.82812,-1.82813 z m 6.59375,2.07813 0.23438,1.45312 q -0.6875,0.14063 -1.23438,0.14063 -0.89062,0 -1.39062,-0.28125 -0.48438,-0.28125 -0.6875,-0.73438 -0.20313,-0.46875 -0.20313,-1.9375 v -5.57812 h -1.20312 v -1.26563 h 1.20312 v -2.39062 l 1.625,-0.98438 v 3.375 h 1.65625 v 1.26563 h -1.65625 v 5.67187 q 0,0.6875 0.0781,0.89063 0.0937,0.20312 0.28125,0.32812 0.20312,0.10938 0.57812,0.10938 0.26563,0 0.71875,-0.0625 z m 1.60517,-10 v -1.89063 h 1.64062 v 1.89063 z m 0,11.46875 v -9.67188 h 1.64062 v 9.67188 z m 3.53546,-4.84375 q 0,-2.6875 1.48437,-3.96875 1.25,-1.07813 3.04688,-1.07813 2,0 3.26562,1.3125 1.26563,1.29688 1.26563,3.60938 0,1.85937 -0.5625,2.9375 -0.5625,1.0625 -1.64063,1.65625 -1.0625,0.59375 -2.32812,0.59375 -2.03125,0 -3.28125,-1.29688 -1.25,-1.3125 -1.25,-3.76562 z m 1.6875,0 q 0,1.85937 0.79687,2.79687 0.8125,0.92188 2.04688,0.92188 1.21875,0 2.03125,-0.92188 0.8125,-0.9375 0.8125,-2.84375 0,-1.79687 -0.8125,-2.71875 -0.8125,-0.92187 -2.03125,-0.92187 -1.23438,0 -2.04688,0.92187 -0.79687,0.90625 -0.79687,2.76563 z m 9.29758,4.84375 v -9.67188 h 1.46875 v 1.375 q 1.0625,-1.59375 3.07812,-1.59375 0.875,0 1.60938,0.3125 0.73437,0.3125 1.09375,0.82813 0.375,0.5 0.51562,1.20312 0.0937,0.45313 0.0937,1.59375 v 5.95313 h -1.64062 v -5.89063 q 0,-1 -0.20313,-1.48437 -0.1875,-0.5 -0.67187,-0.79688 -0.48438,-0.29687 -1.14063,-0.29687 -1.04687,0 -1.8125,0.67187 -0.75,0.65625 -0.75,2.51563 v 5.28125 z"
     fill-rule="nonzero"
     id="path77" />
  <path
     fill="#000000"
     fill-opacity="0"
     d="M 478.32208,103.89894 H 740.24334 V 145.9147 H 478.32208 Z"
     fill-rule="evenodd"
     id="path79" />
  <path
     fill="#38761d"
     d="m 488.85332,130.81894 v -13.35938 h 9.01563 v 1.57813 h -7.25 v 4.14062 h 6.26562 v 1.57813 h -6.26562 v 6.0625 z m 11.09912,-11.46875 v -1.89063 h 1.64063 v 1.89063 z m 0,11.46875 v -9.67188 h 1.64063 v 9.67188 z m 7.72296,-1.46875 0.23438,1.45312 q -0.6875,0.14063 -1.23438,0.14063 -0.89062,0 -1.39062,-0.28125 -0.48438,-0.28125 -0.6875,-0.73438 -0.20313,-0.46875 -0.20313,-1.9375 v -5.57812 h -1.20312 v -1.26563 h 1.20312 v -2.39062 l 1.625,-0.98438 v 3.375 h 1.65625 v 1.26563 h -1.65625 v 5.67187 q 0,0.6875 0.0781,0.89063 0.0937,0.20312 0.28125,0.32812 0.20312,0.10938 0.57812,0.10938 0.26563,0 0.71875,-0.0625 z m 5.18329,0 0.23438,1.45312 q -0.6875,0.14063 -1.23438,0.14063 -0.89062,0 -1.39062,-0.28125 -0.48438,-0.28125 -0.6875,-0.73438 -0.20313,-0.46875 -0.20313,-1.9375 v -5.57812 h -1.20312 v -1.26563 h 1.20312 v -2.39062 l 1.625,-0.98438 v 3.375 h 1.65625 v 1.26563 h -1.65625 v 5.67187 q 0,0.6875 0.0781,0.89063 0.0937,0.20312 0.28125,0.32812 0.20312,0.10938 0.57812,0.10938 0.26563,0 0.71875,-0.0625 z m 8.23016,-1.64063 1.6875,0.20313 q -0.40625,1.48437 -1.48437,2.3125 -1.07813,0.8125 -2.76563,0.8125 -2.125,0 -3.375,-1.29688 -1.23437,-1.3125 -1.23437,-3.67187 0,-2.45313 1.25,-3.79688 1.26562,-1.34375 3.26562,-1.34375 1.9375,0 3.15625,1.32813 1.23438,1.3125 1.23438,3.70312 0,0.15625 0,0.4375 h -7.21875 q 0.0937,1.59375 0.90625,2.45313 0.8125,0.84375 2.01562,0.84375 0.90625,0 1.54688,-0.46875 0.64062,-0.48438 1.01562,-1.51563 z m -5.39062,-2.65625 h 5.40625 q -0.10938,-1.21875 -0.625,-1.82812 -0.78125,-0.95313 -2.03125,-0.95313 -1.125,0 -1.90625,0.76563 -0.76563,0.75 -0.84375,2.01562 z m 15.40698,5.76563 v -1.21875 q -0.90625,1.4375 -2.70312,1.4375 -1.15625,0 -2.125,-0.64063 -0.96875,-0.64062 -1.5,-1.78125 -0.53125,-1.14062 -0.53125,-2.625 0,-1.45312 0.48437,-2.625 0.48438,-1.1875 1.4375,-1.8125 0.96875,-0.625 2.17188,-0.625 0.875,0 1.54687,0.375 0.6875,0.35938 1.10938,0.95313 v -4.79688 h 1.64062 v 13.35938 z m -5.17187,-4.82813 q 0,1.85938 0.78125,2.78125 0.78125,0.92188 1.84375,0.92188 1.07812,0 1.82812,-0.875 0.75,-0.89063 0.75,-2.6875 0,-1.98438 -0.76562,-2.90625 -0.76563,-0.9375 -1.89063,-0.9375 -1.07812,0 -1.8125,0.89062 -0.73437,0.89063 -0.73437,2.8125 z m 14.59027,4.82813 v -13.35938 h 5.01562 q 1.53125,0 2.45313,0.40625 0.92187,0.40625 1.4375,1.25 0.53125,0.84375 0.53125,1.76563 0,0.85937 -0.46875,1.625 -0.45313,0.75 -1.39063,1.20312 1.20313,0.35938 1.85938,1.21875 0.65625,0.85938 0.65625,2.01563 0,0.9375 -0.40625,1.75 -0.39063,0.79687 -0.98438,1.23437 -0.57812,0.4375 -1.45312,0.67188 -0.875,0.21875 -2.15625,0.21875 z m 1.78125,-7.75 h 2.875 q 1.1875,0 1.6875,-0.14063 0.67187,-0.20312 1.01562,-0.67187 0.34375,-0.46875 0.34375,-1.17188 0,-0.65625 -0.32812,-1.15625 -0.3125,-0.51562 -0.90625,-0.70312 -0.59375,-0.1875 -2.03125,-0.1875 h -2.65625 z m 0,6.17187 h 3.3125 q 0.85937,0 1.20312,-0.0625 0.60938,-0.10937 1.01563,-0.35937 0.42187,-0.26563 0.6875,-0.75 0.26562,-0.48438 0.26562,-1.125 0,-0.75 -0.39062,-1.29688 -0.375,-0.54687 -1.0625,-0.76562 -0.67188,-0.23438 -1.95313,-0.23438 h -3.07812 z m 9.92792,-3.26562 q 0,-2.6875 1.48437,-3.96875 1.25,-1.07813 3.04688,-1.07813 2,0 3.26562,1.3125 1.26563,1.29688 1.26563,3.60938 0,1.85937 -0.5625,2.9375 -0.5625,1.0625 -1.64063,1.65625 -1.0625,0.59375 -2.32812,0.59375 -2.03125,0 -3.28125,-1.29688 -1.25,-1.3125 -1.25,-3.76562 z m 1.6875,0 q 0,1.85937 0.79687,2.79687 0.8125,0.92188 2.04688,0.92188 1.21875,0 2.03125,-0.92188 0.8125,-0.9375 0.8125,-2.84375 0,-1.79687 -0.8125,-2.71875 -0.8125,-0.92187 -2.03125,-0.92187 -1.23438,0 -2.04688,0.92187 -0.79687,0.90625 -0.79687,2.76563 z m 15.62573,4.84375 v -1.42188 q -1.125,1.64063 -3.0625,1.64063 -0.85938,0 -1.60938,-0.32813 -0.73437,-0.32812 -1.09375,-0.82812 -0.35937,-0.5 -0.5,-1.21875 -0.10937,-0.46875 -0.10937,-1.53125 v -5.98438 h 1.64062 v 5.35938 q 0,1.28125 0.10938,1.73437 0.15625,0.64063 0.65625,1.01563 0.5,0.375 1.23437,0.375 0.73438,0 1.375,-0.375 0.65625,-0.39063 0.92188,-1.03125 0.26562,-0.65625 0.26562,-1.89063 v -5.1875 h 1.64063 v 9.67188 z m 4.0476,0 v -9.67188 h 1.46875 v 1.375 q 1.0625,-1.59375 3.07813,-1.59375 0.875,0 1.60937,0.3125 0.73438,0.3125 1.09375,0.82813 0.375,0.5 0.51563,1.20312 0.0937,0.45313 0.0937,1.59375 v 5.95313 h -1.64063 v -5.89063 q 0,-1 -0.20312,-1.48437 -0.1875,-0.5 -0.67188,-0.79688 -0.48437,-0.29687 -1.14062,-0.29687 -1.04688,0 -1.8125,0.67187 -0.75,0.65625 -0.75,2.51563 v 5.28125 z m 16.64136,0 v -1.21875 q -0.90625,1.4375 -2.70312,1.4375 -1.15625,0 -2.125,-0.64063 -0.96875,-0.64062 -1.5,-1.78125 -0.53125,-1.14062 -0.53125,-2.625 0,-1.45312 0.48437,-2.625 0.48438,-1.1875 1.4375,-1.8125 0.96875,-0.625 2.17188,-0.625 0.875,0 1.54687,0.375 0.6875,0.35938 1.10938,0.95313 v -4.79688 h 1.64062 v 13.35938 z m -5.17187,-4.82813 q 0,1.85938 0.78125,2.78125 0.78125,0.92188 1.84375,0.92188 1.07812,0 1.82812,-0.875 0.75,-0.89063 0.75,-2.6875 0,-1.98438 -0.76562,-2.90625 -0.76563,-0.9375 -1.89063,-0.9375 -1.07812,0 -1.8125,0.89062 -0.73437,0.89063 -0.73437,2.8125 z m 8.62567,1.9375 1.625,-0.25 q 0.125,0.96875 0.75,1.5 0.625,0.51563 1.75,0.51563 1.125,0 1.67187,-0.45313 0.54688,-0.46875 0.54688,-1.09375 0,-0.54687 -0.48438,-0.875 -0.32812,-0.21875 -1.67187,-0.54687 -1.8125,-0.46875 -2.51563,-0.79688 -0.6875,-0.32812 -1.04687,-0.90625 -0.35938,-0.59375 -0.35938,-1.3125 0,-0.64062 0.29688,-1.1875 0.29687,-0.5625 0.8125,-0.92187 0.375,-0.28125 1.03125,-0.46875 0.67187,-0.20313 1.42187,-0.20313 1.14063,0 2,0.32813 0.85938,0.32812 1.26563,0.89062 0.42187,0.5625 0.57812,1.5 l -1.60937,0.21875 q -0.10938,-0.75 -0.64063,-1.17187 -0.51562,-0.42188 -1.46875,-0.42188 -1.14062,0 -1.625,0.375 -0.46875,0.375 -0.46875,0.875 0,0.3125 0.1875,0.57813 0.20313,0.26562 0.64063,0.4375 0.23437,0.0937 1.4375,0.42187 1.75,0.45313 2.4375,0.75 0.6875,0.29688 1.07812,0.85938 0.39063,0.5625 0.39063,1.40625 0,0.82812 -0.48438,1.54687 -0.46875,0.71875 -1.375,1.125 -0.90625,0.39063 -2.04687,0.39063 -1.875,0 -2.875,-0.78125 -0.98438,-0.78125 -1.25,-2.32813 z"
     fill-rule="nonzero"
     id="path81"
     style="fill:#b4555a" />
  <path
     style="fill:none;fill-rule:evenodd;stroke:#000000;stroke-width:1px;stroke-linecap:butt;stroke-linejoin:miter;stroke-opacity:1"
     d="m 189.55307,169.86876 119.18942,11.54217 118.53938,11.67811"
     id="path5373" />
  <path
     style="fill:none;fill-rule:evenodd;stroke:#000000;stroke-width:1px;stroke-linecap:butt;stroke-linejoin:miter;stroke-opacity:1"
     d="m 243.26473,290.67337 88.35847,-38.17871 88.35848,-38.1787"
     id="path5375" />
</svg>
