<?xml version="1.0" encoding="UTF-8" standalone="no"?>
<svg
   version="1.1"
   viewBox="0 0 638.10309 234.98329"
   fill="none"
   stroke="none"
   stroke-linecap="square"
   stroke-miterlimit="10"
   id="svg67"
   width="638.10309"
   height="234.98329"
   xmlns="http://www.w3.org/2000/svg"
   xmlns:svg="http://www.w3.org/2000/svg">
  <defs
     id="defs71" />
  <clipPath
     id="g12ac9517219_0_311.0">
    <path
       d="M 0,0 H 960 V 540 H 0 Z"
       clip-rule="nonzero"
       id="path2" />
  </clipPath>
  <rect
     style="color:#000000;overflow:visible;fill:#ffffff;fill-rule:evenodd;stroke:none;stroke-width:0.963048px;stroke-linecap:butt;-inkscape-stroke:none;stop-color:#000000"
     id="rect3380"
     width="637.14001"
     height="234.02025"
     x="0.48152399"
     y="0.48152399" />
  <path
     fill="#c35656"
     fill-opacity="0.2067"
     d="M 149.5057,56.039183 411.81713,30.225233 356.85726,180.11628 211.12746,195.10709 Z"
     fill-rule="evenodd"
     id="path11" />
  <path
     stroke="#ff0000"
     stroke-width="3"
     stroke-linejoin="round"
     stroke-linecap="butt"
     d="m 252.38235,81.674053 29.86359,70.345357 8.2373,18.34404"
     fill-rule="evenodd"
     id="path63"
     style="stroke-linecap:butt" />
  <path
     stroke="#000000"
     stroke-width="1"
     stroke-linejoin="round"
     stroke-linecap="butt"
     stroke-dasharray="4, 3"
     d="M 149.5057,56.039183 411.81713,30.225233 356.85726,180.11628 211.12746,195.10709 Z"
     fill-rule="evenodd"
     id="path13" />
  <path
     stroke="#000000"
     stroke-width="3"
     stroke-linejoin="round"
     stroke-linecap="butt"
     d="m 80.602809,213.48509 66.330721,-100.34647 44.22046,-39.968497 32.31497,-5.95276 28.91339,14.45669 v 22.110227 l -20.40945,12.75592 -11.05512,39.11811 15.30707,22.11023 39.11811,1.7008 45.07089,-28.06298 40.81888,-10.20475 47.62207,7.65354 70.58264,60.37796"
     fill-rule="evenodd"
     id="path47" />
  <path
     fill="#000000"
     fill-opacity="0"
     d="M 149.70123,55.737043 411.62249,30.225233"
     fill-rule="evenodd"
     id="path15" />
  <path
     fill="#000000"
     fill-opacity="0"
     d="m 276.19335,45.957513 14.4567,125.858257"
     fill-rule="evenodd"
     id="path19" />
  <path
     fill="#595959"
     stroke="#595959"
     stroke-width="1"
     stroke-linecap="butt"
     d="m 288.32443,166.04347 2.15881,4.31998 1.12308,-4.69696 z"
     fill-rule="evenodd"
     id="path23" />
  <path
     fill="#000000"
     fill-opacity="0"
     d="m 323.81539,40.004753 0.8504,111.401597"
     fill-rule="evenodd"
     id="path25" />
  <path
     fill="#595959"
     stroke="#595959"
     stroke-width="1"
     stroke-linecap="butt"
     d="m 322.96832,145.41911 1.68631,4.52536 1.61707,-4.55057 z"
     fill-rule="evenodd"
     id="path29" />
  <path
     fill="#000000"
     fill-opacity="0"
     d="M 372.28783,35.752793 352.72878,143.75279"
     fill-rule="evenodd"
     id="path31" />
  <path
     fill="#595959"
     stroke="#595959"
     stroke-width="1"
     stroke-linecap="butt"
     d="m 352.17272,137.55448 0.81659,4.7598 2.43399,-4.17112 z"
     fill-rule="evenodd"
     id="path35" />
  <path
     fill="#000000"
     fill-opacity="0"
     d="M 631.65797,190.52445 410.55555,30.650433"
     fill-rule="evenodd"
     id="path37" />
  <path
     fill="#000000"
     fill-opacity="0"
     d="M 151.18547,57.012633 3.2169689,200.72917"
     fill-rule="evenodd"
     id="path41" />
  <path
     fill="#000000"
     fill-opacity="0"
     d="m 80.602809,213.48509 66.330721,-100.34647 44.22046,-39.968497 32.31497,-5.95276 28.91339,14.45669 v 22.110227 l -20.40945,12.75592 -11.05512,39.11811 15.30707,22.11023 39.11811,1.7008 45.07089,-28.06298 40.81888,-10.20475 47.62207,7.65354 70.58264,60.37796"
     fill-rule="evenodd"
     id="path45" />
  <path
     fill="#000000"
     fill-opacity="0"
     d="m 241.3272,47.658303 7.65356,32.31497"
     fill-rule="evenodd"
     id="path49" />
  <path
     fill="#595959"
     stroke="#595959"
     stroke-width="1"
     stroke-linecap="butt"
     d="m 245.99067,74.515453 2.65317,4.03528 0.56137,-4.7966 z"
     fill-rule="evenodd"
     id="path53" />
  <path
     fill="#000000"
     fill-opacity="0"
     d="m 200.50832,52.760663 5.10236,18.70868"
     fill-rule="evenodd"
     id="path55" />
  <path
     fill="#000000"
     fill-opacity="0"
     d="m 249.83114,83.374833 40.81891,92.692927"
     fill-rule="evenodd"
     id="path61" />
  <path
     stroke="#595959"
     stroke-width="1"
     stroke-linejoin="round"
     stroke-linecap="butt"
     d="M 275.84786,42.949683 289.96538,165.85499"
     fill-rule="evenodd"
     id="path21" />
  <path
     stroke="#595959"
     stroke-width="1"
     stroke-linejoin="round"
     stroke-linecap="butt"
     d="m 323.80728,38.941993 0.81271,106.464537"
     fill-rule="evenodd"
     id="path27" />
  <path
     stroke="#595959"
     stroke-width="1"
     stroke-linejoin="round"
     stroke-linecap="butt"
     d="M 372.60712,33.989773 353.79802,137.84883"
     fill-rule="evenodd"
     id="path33" />
  <path
     stroke="#595959"
     stroke-width="1"
     stroke-linejoin="round"
     stroke-linecap="butt"
     d="m 241.3272,47.658303 6.27075,26.47647"
     fill-rule="evenodd"
     id="path51" />
  <path
     stroke="#595959"
     stroke-width="1"
     stroke-linejoin="round"
     stroke-linecap="butt"
     d="m 200.07717,51.179783 3.9548,14.50095"
     fill-rule="evenodd"
     id="path57" />
  <path
     fill="#595959"
     stroke="#595959"
     stroke-width="1"
     stroke-linecap="butt"
     d="m 202.43844,66.115353 2.7876,3.94359 0.39947,-4.81279 z"
     fill-rule="evenodd"
     id="path59" />
  <path
     stroke="#1155cc"
     stroke-width="3"
     stroke-linejoin="round"
     stroke-linecap="butt"
     d="M 631.65797,190.52445 411.81713,30.225233 149.5057,56.039183 3.2169689,200.72917"
     fill-rule="evenodd"
     id="path39" />
</svg>
